<svg width="435" height="520" viewBox="0 0 435 520" fill="none" xmlns="http://www.w3.org/2000/svg">
<path fill-rule="evenodd" clip-rule="evenodd" d="M434.503 260.039C434.648 261.963 439.709 334.02 388.618 363.708C365.142 377.35 337.701 380.763 310.038 384.204C276.683 388.354 243.007 392.543 215.572 414.752C205.707 422.738 194.537 428.366 182.956 434.2C167.802 441.835 151.943 449.825 137.385 463.917C100.54 499.583 51.28 519.529 0 519.529L0.357384 260H0.360437C-0.0616634 253.781 -3.51934 185.455 45.8851 156.747C69.3614 143.105 96.8025 139.692 124.465 136.251C157.82 132.102 191.496 127.912 218.931 105.703C228.796 97.717 239.966 92.0895 251.547 86.2548C266.701 78.6199 282.56 70.6304 297.118 56.538C333.963 20.872 383.223 0.926025 434.503 0.926025V260.039Z" fill="#D9E8FD"/>
<path opacity="0.7" d="M215.34 236.394C221.858 240.157 221.901 246.265 215.417 250.033C208.933 253.801 198.388 253.796 191.871 250.033C185.344 246.265 185.31 240.162 191.794 236.394C198.278 232.626 208.813 232.625 215.34 236.394ZM126.003 236.916L72.949 206.285L142.544 166.104L195.482 196.668C195.876 196.895 195.876 197.464 195.482 197.692L127.545 236.916C127.068 237.192 126.48 237.192 126.003 236.916ZM248.006 98.525C245.031 100.243 245.031 103.028 248.006 104.746C250.981 106.464 255.805 106.464 258.78 104.746C261.755 103.028 261.755 100.243 258.78 98.525C255.805 96.808 250.981 96.808 248.006 98.525ZM200.319 169.055L318.775 237.446C322.394 239.535 328.715 239.273 332.893 236.861L412.594 190.846L281.034 114.89L201.333 160.905C197.154 163.317 196.7 166.966 200.319 169.055ZM195.98 126.985L210.734 135.465C211.412 135.856 212.596 135.807 213.379 135.355L228.309 126.735L211.1 116.837L196.17 125.457C195.387 125.91 195.302 126.593 195.98 126.985ZM252.754 244.548L267.508 253.029C268.186 253.42 269.37 253.371 270.153 252.919L285.083 244.299L267.874 234.401L252.944 243.021C252.161 243.473 252.076 244.157 252.754 244.548Z" fill="#8DA4C5"/>
<path d="M222.588 110.036L211.487 116.487L200.319 110.039L211.42 103.588L222.588 110.036Z" fill="#4652F6"/>
<path d="M222.588 110.036L222.55 123.652L211.448 130.104L211.487 116.487L222.588 110.036Z" fill="#2C4475"/>
<path d="M211.487 116.487L211.448 130.104L200.281 123.656L200.319 110.039L211.487 116.487Z" fill="#344E8F"/>
<path opacity="0.9" d="M277.206 228.249L266.104 234.7L254.937 228.253L266.038 221.801L277.206 228.249Z" fill="#91E8B2"/>
<path d="M277.206 228.249L277.167 241.866L266.066 248.317L266.104 234.7L277.206 228.249Z" fill="#2C4475"/>
<path d="M266.104 234.7L266.066 248.317L254.898 241.869L254.937 228.253L266.104 234.7Z" fill="#344E8F"/>
<path d="M257.45 73.474L252.514 73.677L252.886 71.716L256.165 71.175L257.45 73.474Z" fill="#D1AB8B"/>
<path d="M252.322 80.166L251.177 100.032H249.243L246.533 80.791C246.533 80.791 248.908 79.96 252.322 80.166Z" fill="#6889F9"/>
<path d="M249.203 100.785C249.203 100.785 251.477 102.547 252.301 102.121C253.125 101.695 252.784 101.581 252.074 100.7C251.363 99.819 251.193 99.62 251.193 99.62C251.193 99.62 250.852 100.018 250.028 99.933L249.204 99.848V100.785H249.203Z" fill="#3D4063"/>
<path d="M256.007 79.739L255.004 98.674H253.07L252.127 80.126C252.127 80.126 252.592 79.533 256.007 79.739Z" fill="#6889F9"/>
<path d="M253.029 99.427C253.029 99.427 255.303 101.189 256.128 100.763C256.952 100.337 256.611 100.223 255.901 99.342C255.19 98.461 255.02 98.262 255.02 98.262C255.02 98.262 254.679 98.66 253.855 98.575L253.031 98.49V99.427H253.029Z" fill="#3D4063"/>
<path d="M246.734 81.358L251.552 81.8929C253.104 82.0649 254.68 81.863 256.124 81.267C256.272 81.206 256.363 81.1629 256.363 81.1499L255.624 68.6539C255.624 66.3939 254.514 64.545 252.254 64.545H250.1C247.84 64.545 245.991 66.3939 245.991 68.6539V80.5289C245.992 80.9539 246.311 81.311 246.734 81.358Z" fill="#D9E8FD"/>
<path d="M251.563 66.705C252.296 66.705 252.89 66.111 252.89 65.378V63.125H250.236V65.378C250.236 66.111 250.831 66.705 251.563 66.705Z" fill="#D1AB8B"/>
<path d="M250.295 65.65C250.295 65.65 250.923 67.424 252.107 67.325C253.291 67.227 252.947 65.282 252.829 65.377C252.711 65.473 250.295 65.65 250.295 65.65Z" fill="#D1AB8B"/>
<path d="M251.932 65.1909H252.183C253.812 65.1909 255.145 63.858 255.145 62.229V58.847C255.145 57.218 253.812 55.8849 252.183 55.8849H251.932C250.303 55.8849 248.97 57.218 248.97 58.847V62.229C248.969 63.858 250.302 65.1909 251.932 65.1909Z" fill="#DDBB97"/>
<path d="M248.832 61.277C248.832 61.277 247.623 57.928 248.177 57.399C248.731 56.87 249.058 57.374 249.058 57.374C249.058 57.374 248.756 55.6369 250.619 55.3089C252.482 54.9819 256.536 56.1399 256.108 58.5569C255.68 60.9739 250.845 59.388 250.04 60.219C249.234 61.05 248.932 61.856 248.932 61.856L248.832 61.277Z" fill="#544E49"/>
<path d="M257.112 73.508C256.704 73.508 256.305 73.303 256.076 72.929C254.424 70.251 251.715 65.886 251.327 65.333C251.002 64.951 250.936 64.392 251.201 63.934C251.539 63.351 252.285 63.156 252.864 63.491C253.217 63.695 253.254 63.717 258.147 71.651C258.5 72.223 258.322 72.973 257.75 73.325C257.551 73.449 257.331 73.508 257.112 73.508Z" fill="#D1AB8B"/>
<path d="M257.044 75.582L258.202 73.248C258.24 73.171 258.306 73.11 258.386 73.078L261.031 72.009C261.34 71.884 261.634 72.218 261.47 72.509L260.001 75.116C259.959 75.191 259.89 75.249 259.808 75.277L257.474 76.073C257.176 76.173 256.904 75.863 257.044 75.582Z" fill="#7481FA"/>
<path d="M248.5 66.6299C248.5 66.6299 249.753 67.126 249.753 68.722V72.3389H248.635L248.5 66.6299Z" fill="#CEDFF2"/>
<path d="M256.756 77.01C256.72 77.01 256.684 77.008 256.648 77.005L246.956 76.152L246.44 71.957C246.358 71.29 246.831 70.682 247.499 70.6C248.161 70.512 248.774 70.991 248.855 71.659L249.132 73.9L256.862 74.581C257.532 74.64 258.026 75.231 257.967 75.9C257.911 76.533 257.379 77.01 256.756 77.01Z" fill="#D1AB8B"/>
<path d="M245.893 72.364H249.122C249.207 72.364 249.277 72.295 249.277 72.209V68.0569C249.277 67.1139 248.513 66.3499 247.57 66.3499H247.446C246.503 66.3499 245.739 67.1139 245.739 68.0569V72.209C245.738 72.294 245.807 72.364 245.893 72.364Z" fill="#D9E8FD"/>
<path d="M249.263 61.47C249.263 61.47 248.506 61.644 248.506 62.069C248.506 62.605 249.279 62.842 249.342 62.621C249.355 62.576 249.263 61.47 249.263 61.47Z" fill="#DDBB97"/>
<path d="M128.528 227.005L82.4619 200.409L142.89 165.521L188.843 192.052C189.191 192.253 189.191 192.754 188.843 192.955L129.866 227.005C129.452 227.244 128.942 227.244 128.528 227.005Z" fill="#7BC794"/>
<path d="M82.4679 190.898V200.407L142.896 165.519V156.01L82.4679 190.898Z" fill="#6BAF7E"/>
<path d="M127.836 225.713L82.4619 199.516L142.89 164.628L188.147 190.757C188.804 191.136 188.804 192.085 188.147 192.464L130.559 225.713C129.716 226.199 128.678 226.199 127.836 225.713Z" fill="#F2F4F3"/>
<path d="M127.836 224.82L82.4619 198.623L142.89 163.735L188.147 189.864C188.804 190.243 188.804 191.192 188.147 191.571L130.559 224.82C129.716 225.306 128.678 225.306 127.836 224.82Z" fill="white"/>
<path d="M127.836 224.134L82.4619 197.937L142.89 163.049L188.147 189.178C188.804 189.557 188.804 190.506 188.147 190.885L130.559 224.134C129.716 224.62 128.678 224.62 127.836 224.134Z" fill="#F2F4F3"/>
<path d="M127.836 223.241L82.4619 197.044L142.89 162.156L188.147 188.285C188.804 188.664 188.804 189.613 188.147 189.992L130.559 223.241C129.716 223.727 128.678 223.727 127.836 223.241Z" fill="white"/>
<path d="M127.836 222.555L82.4619 196.358L142.89 161.47L188.147 187.599C188.804 187.978 188.804 188.927 188.147 189.306L130.559 222.555C129.716 223.041 128.678 223.041 127.836 222.555Z" fill="#F2F4F3"/>
<path d="M127.836 221.662L82.4619 195.465L142.89 160.577L188.147 186.706C188.804 187.085 188.804 188.034 188.147 188.413L130.559 221.662C129.716 222.148 128.678 222.148 127.836 221.662Z" fill="white"/>
<path d="M127.836 220.976L82.4619 194.779L142.89 159.891L188.147 186.02C188.804 186.399 188.804 187.348 188.147 187.727L130.559 220.976C129.716 221.463 128.678 221.463 127.836 220.976Z" fill="#F2F4F3"/>
<path d="M127.836 220.083L82.4619 193.886L142.89 158.998L188.147 185.127C188.804 185.506 188.804 186.455 188.147 186.834L130.559 220.083C129.716 220.569 128.678 220.569 127.836 220.083Z" fill="white"/>
<path d="M127.836 219.397L82.4619 193.2L142.89 158.312L188.147 184.441C188.804 184.82 188.804 185.769 188.147 186.148L130.559 219.397C129.716 219.884 128.678 219.884 127.836 219.397Z" fill="#F2F4F3"/>
<path d="M127.836 218.504L82.4619 192.307L142.89 157.419L188.147 183.548C188.804 183.927 188.804 184.876 188.147 185.255L130.559 218.504C129.716 218.991 128.678 218.991 127.836 218.504Z" fill="white"/>
<path d="M127.836 217.819L82.4619 191.622L142.89 156.734L188.147 182.863C188.804 183.242 188.804 184.191 188.147 184.57L130.559 217.819C129.716 218.305 128.678 218.305 127.836 217.819Z" fill="#F2F4F3"/>
<path d="M127.836 216.926L82.4619 190.729L142.89 155.841L188.147 181.97C188.804 182.349 188.804 183.298 188.147 183.677L130.559 216.926C129.716 217.412 128.678 217.412 127.836 216.926Z" fill="white"/>
<path d="M128.528 217.461L82.4619 190.865L142.89 155.977L188.855 182.515C189.197 182.713 189.197 183.207 188.855 183.404L129.866 217.461C129.452 217.699 128.942 217.699 128.528 217.461Z" fill="#91E8B2"/>
<path d="M88.7958 201.31L86.2478 199.839L89.9358 197.722L92.4838 199.193L88.7958 201.31Z" fill="#4652F6"/>
<path opacity="0.3" d="M128.925 214.441L88.5569 191.135L141.51 160.563L181.789 183.818C182.089 183.991 182.089 184.424 181.789 184.597L130.097 214.441C129.735 214.651 129.288 214.651 128.925 214.441Z" fill="#2C4475"/>
<path d="M129.996 209.462L93.2478 188.245L141.453 160.414L178.111 181.579C178.388 181.739 178.388 182.139 178.111 182.299L131.063 209.462C130.733 209.653 130.326 209.653 129.996 209.462Z" fill="#4652F6"/>
<path d="M93.252 180.658V188.244L141.458 160.412V152.826L93.252 180.658Z" fill="#4652F6"/>
<path d="M129.444 208.431L93.2468 187.533L141.452 159.702L177.555 180.546C178.079 180.849 178.079 181.605 177.555 181.908L131.615 208.432C130.944 208.819 130.116 208.819 129.444 208.431Z" fill="#F2F4F3"/>
<path d="M129.444 207.719L93.2468 186.821L141.452 158.99L177.555 179.834C178.079 180.137 178.079 180.893 177.555 181.196L131.615 207.72C130.944 208.106 130.116 208.106 129.444 207.719Z" fill="white"/>
<path d="M129.444 207.171L93.2468 186.273L141.452 158.442L177.555 179.286C178.079 179.589 178.079 180.345 177.555 180.648L131.615 207.172C130.944 207.559 130.116 207.559 129.444 207.171Z" fill="#F2F4F3"/>
<path d="M129.444 206.459L93.2468 185.561L141.452 157.73L177.555 178.574C178.079 178.877 178.079 179.633 177.555 179.936L131.615 206.46C130.944 206.847 130.116 206.847 129.444 206.459Z" fill="white"/>
<path d="M129.444 205.912L93.2468 185.014L141.452 157.183L177.555 178.027C178.079 178.33 178.079 179.086 177.555 179.389L131.615 205.913C130.944 206.3 130.116 206.3 129.444 205.912Z" fill="#F2F4F3"/>
<path d="M129.444 205.199L93.2468 184.301L141.452 156.47L177.555 177.314C178.079 177.617 178.079 178.373 177.555 178.676L131.615 205.2C130.944 205.587 130.116 205.587 129.444 205.199Z" fill="white"/>
<path d="M129.444 204.652L93.2468 183.754L141.452 155.923L177.555 176.767C178.079 177.07 178.079 177.826 177.555 178.129L131.615 204.653C130.944 205.04 130.116 205.04 129.444 204.652Z" fill="#F2F4F3"/>
<path d="M129.444 203.94L93.2468 183.042L141.452 155.211L177.555 176.055C178.079 176.358 178.079 177.114 177.555 177.417L131.615 203.941C130.944 204.328 130.116 204.328 129.444 203.94Z" fill="white"/>
<path d="M129.444 203.393L93.2468 182.495L141.452 154.664L177.555 175.508C178.079 175.811 178.079 176.567 177.555 176.87L131.615 203.394C130.944 203.781 130.116 203.781 129.444 203.393Z" fill="#F2F4F3"/>
<path d="M129.444 202.681L93.2468 181.783L141.452 153.952L177.555 174.796C178.079 175.099 178.079 175.855 177.555 176.158L131.615 202.682C130.944 203.068 130.116 203.068 129.444 202.681Z" fill="white"/>
<path d="M129.444 202.133L93.2468 181.235L141.452 153.404L177.555 174.248C178.079 174.551 178.079 175.307 177.555 175.61L131.615 202.134C130.944 202.521 130.116 202.521 129.444 202.133Z" fill="#F2F4F3"/>
<path d="M129.444 201.421L93.2468 180.523L141.452 152.692L177.555 173.536C178.079 173.839 178.079 174.595 177.555 174.898L131.615 201.422C130.944 201.809 130.116 201.809 129.444 201.421Z" fill="white"/>
<path d="M129.996 201.848L93.2478 180.631L141.453 152.8L178.121 173.97C178.394 174.128 178.394 174.522 178.121 174.679L131.064 201.847C130.733 202.038 130.326 202.038 129.996 201.848Z" fill="#4652F6"/>
<path d="M98.3008 188.964L96.2678 187.79L99.2098 186.101L101.242 187.275L98.3008 188.964Z" fill="#91E8B2"/>
<path d="M280.847 121.272L280.84 123.674L236.437 149.478L236.444 147.076L280.847 121.272Z" fill="#F2F4F3"/>
<path d="M256.594 179.421L256.601 177.019C256.6 177.281 256.773 177.544 257.118 177.744L257.111 180.146C256.766 179.946 256.593 179.684 256.594 179.421Z" fill="#E4E4E4"/>
<path d="M377.806 177.252L377.8 179.654L280.84 123.674L280.847 121.272L377.806 177.252Z" fill="#F2F4F3"/>
<path d="M293.873 183.346L270.6 169.909C269.913 169.513 268.802 169.51 268.12 169.906L257.11 176.304C256.771 176.501 256.601 176.76 256.601 177.019L256.594 179.421C256.595 179.162 256.764 178.903 257.103 178.706L268.112 172.308C268.794 171.911 269.905 171.914 270.592 172.311L293.865 185.748C294.212 185.948 294.386 186.211 294.385 186.474L294.392 184.072C294.394 183.809 294.22 183.546 293.873 183.346Z" fill="#EBEBEB"/>
<path d="M294.393 184.072L294.386 186.474C294.385 186.731 294.217 186.988 293.879 187.185L293.886 184.783C294.224 184.586 294.392 184.329 294.393 184.072Z" fill="#E4E4E4"/>
<path d="M293.886 184.783L293.879 187.185L282.87 193.583L282.876 191.181L293.886 184.783ZM280.392 191.181L280.385 193.583L257.111 180.146L257.118 177.744L280.392 191.181Z" fill="#E4E4E4"/>
<path d="M282.876 191.181L282.869 193.583C282.187 193.979 281.071 193.979 280.384 193.583L280.391 191.181C281.078 191.577 282.194 191.577 282.876 191.181Z" fill="#E4E4E4"/>
<path d="M293.873 184.074C294.56 184.47 294.568 185.114 293.886 185.511L282.876 191.909C282.194 192.306 281.078 192.306 280.391 191.909L257.118 178.472C256.431 178.075 256.428 177.429 257.11 177.033L268.12 170.635C268.802 170.239 269.913 170.241 270.6 170.638L293.873 184.074Z" fill="#718FC3"/>
<path d="M333.403 203.056L333.397 205.458L236.437 149.478L236.444 147.076L333.403 203.056Z" fill="#E4E4E4"/>
<path d="M377.806 177.252L333.403 203.056L236.444 147.076L280.847 121.272L377.806 177.252Z" fill="#D9E8FD"/>
<path d="M281.676 114.529L389.444 176.749L324.153 214.692C320.989 216.531 315.842 216.531 312.657 214.692L216.422 159.131C213.238 157.292 213.221 154.311 216.384 152.472L281.676 114.529ZM333.403 203.056L377.806 177.252L280.846 121.272L236.443 147.076L333.403 203.056ZM282.876 191.181L293.886 184.783C294.568 184.386 294.56 183.743 293.873 183.346L270.6 169.909C269.913 169.512 268.802 169.51 268.12 169.906L257.11 176.304C256.428 176.701 256.431 177.347 257.118 177.743L280.391 191.18C281.078 191.577 282.194 191.577 282.876 191.181Z" fill="#F2F4F3"/>
<path d="M377.806 177.252L377.799 179.654L333.397 205.458L333.403 203.056L377.806 177.252Z" fill="#F2F4F3"/>
<path d="M324.153 214.692C320.989 216.531 315.842 216.531 312.657 214.692L216.422 159.131C214.82 158.206 214.019 156.991 214.023 155.778L214.016 158.18C214.012 159.393 214.813 160.607 216.415 161.533L312.65 217.094C315.834 218.932 320.982 218.932 324.146 217.094L389.438 179.151L389.445 176.749L324.153 214.692Z" fill="#D9E8FD"/>
<path d="M288.517 41.586L293.709 38.569L293.506 110.101L288.314 113.118L288.517 41.586Z" fill="#39404F"/>
<path d="M288.314 113.118L293.506 110.101L387.352 164.283L382.16 167.3L288.314 113.118Z" fill="#39404F"/>
<path d="M335.45 65.051C335.883 65.301 336.23 65.9069 336.228 66.4039C336.227 66.9009 335.877 67.0999 335.445 66.8499C335.012 66.5999 334.661 65.9969 334.662 65.4989C334.663 65.0029 335.017 64.801 335.45 65.051Z" fill="#718FC3"/>
<path d="M288.517 41.586L293.709 38.569L387.555 92.751L382.363 95.768L288.517 41.586Z" fill="#718FC3"/>
<path d="M383.183 95.2L382.98 166.732L289.135 112.55L289.337 41.0179L383.183 95.2Z" fill="#2D3566"/>
<path d="M382.363 95.7679L387.555 92.7509L387.352 164.283L382.16 167.3L382.363 95.7679Z" fill="#718FC3"/>
<path d="M281.57 32.265L389.338 94.485L389.105 176.627L281.337 114.407L281.57 32.265ZM382.16 167.3L382.363 95.7679L288.517 41.586L288.314 113.118L382.16 167.3ZM335.45 65.0509C335.017 64.8009 334.663 65.003 334.662 65.5C334.661 65.997 335.012 66.601 335.445 66.851C335.878 67.101 336.227 66.902 336.228 66.405C336.23 65.907 335.883 65.2999 335.45 65.0509Z" fill="#404756"/>
<path d="M281.57 32.265L283.016 31.407L390.784 93.627L389.339 94.485L281.57 32.265Z" fill="#4C576C"/>
<path d="M389.339 94.485L390.784 93.627L390.551 175.769L389.106 176.627L389.339 94.485Z" fill="#39404F"/>
<path d="M276.527 131.812L276.531 130.492C276.531 130.677 276.653 130.862 276.897 131.003L276.893 132.323C276.649 132.182 276.527 131.996 276.527 131.812ZM285.724 131.683L285.72 133.003C285.719 133.185 285.599 133.367 285.36 133.507L285.364 132.187C285.604 132.047 285.724 131.865 285.724 131.683ZM285.364 132.186L285.36 133.506L283.035 134.857L283.039 133.537L285.364 132.186Z" fill="#39404F"/>
<path d="M281.288 133.537L281.284 134.857L276.894 132.323L276.897 131.003L281.288 133.537Z" fill="#39404F"/>
<path d="M285.358 131.172C285.844 131.453 285.846 131.906 285.364 132.187L283.039 133.538C282.556 133.819 281.773 133.819 281.287 133.538L276.897 131.003C276.411 130.722 276.409 130.269 276.891 129.988L279.216 128.637C279.699 128.356 280.482 128.356 280.968 128.637L285.358 131.172Z" fill="#39404F"/>
<path d="M283.039 133.537L283.035 134.857C282.552 135.138 281.769 135.138 281.283 134.857L281.287 133.537C281.773 133.818 282.556 133.818 283.039 133.537ZM283.957 136.101L283.961 134.781C283.961 134.966 284.083 135.151 284.327 135.292L284.323 136.612C284.079 136.471 283.956 136.286 283.957 136.101ZM293.154 135.972L293.15 137.292C293.149 137.474 293.029 137.656 292.79 137.796L292.794 136.476C293.033 136.337 293.153 136.155 293.154 135.972ZM292.793 136.476L292.79 137.796L290.465 139.147L290.469 137.827L292.793 136.476Z" fill="#39404F"/>
<path d="M288.717 137.827L288.713 139.147L284.323 136.612L284.327 135.292L288.717 137.827Z" fill="#39404F"/>
<path d="M292.788 135.461C293.274 135.742 293.276 136.195 292.794 136.476L290.469 137.827C289.986 138.108 289.203 138.108 288.717 137.827L284.327 135.292C283.841 135.011 283.839 134.558 284.321 134.277L286.646 132.926C287.129 132.646 287.912 132.646 288.398 132.926L292.788 135.461Z" fill="#39404F"/>
<path d="M290.469 137.827L290.465 139.147C289.982 139.427 289.199 139.427 288.713 139.147L288.717 137.827C289.203 138.107 289.986 138.107 290.469 137.827ZM291.256 140.315L291.26 138.995C291.26 139.18 291.382 139.365 291.626 139.506L291.622 140.826C291.377 140.685 291.255 140.5 291.256 140.315ZM300.452 140.186L300.448 141.506C300.448 141.688 300.327 141.871 300.088 142.01L300.092 140.69C300.332 140.55 300.452 140.368 300.452 140.186ZM300.092 140.69L300.088 142.01L297.763 143.361L297.767 142.041L300.092 140.69Z" fill="#39404F"/>
<path d="M296.016 142.041L296.012 143.361L291.622 140.826L291.625 139.506L296.016 142.041Z" fill="#39404F"/>
<path d="M300.086 139.675C300.572 139.955 300.574 140.409 300.092 140.69L297.767 142.041C297.284 142.322 296.501 142.322 296.015 142.041L291.625 139.506C291.139 139.225 291.137 138.772 291.619 138.491L293.944 137.14C294.427 136.859 295.21 136.859 295.696 137.14L300.086 139.675Z" fill="#39404F"/>
<path d="M297.767 142.041L297.763 143.361C297.28 143.641 296.497 143.642 296.011 143.361L296.015 142.041C296.501 142.321 297.285 142.321 297.767 142.041ZM298.558 144.531L298.562 143.211C298.562 143.396 298.684 143.581 298.928 143.722L298.924 145.042C298.679 144.9 298.557 144.715 298.558 144.531ZM307.753 144.402L307.749 145.722C307.749 145.904 307.629 146.086 307.39 146.226L307.394 144.906C307.633 144.766 307.752 144.584 307.753 144.402ZM307.394 144.905L307.39 146.226L305.065 147.576L305.069 146.257L307.394 144.905Z" fill="#39404F"/>
<path d="M303.318 146.256L303.314 147.576L298.924 145.042L298.927 143.722L303.318 146.256Z" fill="#39404F"/>
<path d="M307.388 143.891C307.871 144.17 307.876 144.625 307.394 144.906L305.069 146.257C304.586 146.537 303.8 146.536 303.317 146.257L298.927 143.722C298.441 143.441 298.439 142.988 298.921 142.707L301.246 141.356C301.729 141.075 302.512 141.075 302.998 141.356L307.388 143.891Z" fill="#39404F"/>
<path d="M305.069 146.257L305.065 147.577C304.582 147.858 303.796 147.856 303.313 147.577L303.317 146.257C303.8 146.535 304.587 146.537 305.069 146.257ZM305.856 148.745L305.86 147.425C305.859 147.61 305.981 147.795 306.226 147.936L306.222 149.256C305.978 149.114 305.856 148.929 305.856 148.745ZM315.053 148.616L315.049 149.936C315.048 150.118 314.928 150.3 314.689 150.44L314.693 149.12C314.932 148.98 315.052 148.798 315.053 148.616ZM314.692 149.119L314.689 150.439L312.364 151.79L312.368 150.47L314.692 149.119Z" fill="#39404F"/>
<path d="M310.616 150.47L310.612 151.79L306.222 149.255L306.226 147.936L310.616 150.47Z" fill="#39404F"/>
<path d="M314.687 148.105C315.173 148.385 315.175 148.839 314.693 149.12L312.368 150.471C311.885 150.751 311.102 150.751 310.616 150.471L306.226 147.936C305.74 147.655 305.738 147.202 306.22 146.921L308.545 145.57C309.028 145.289 309.811 145.289 310.297 145.57L314.687 148.105Z" fill="#39404F"/>
<path d="M312.368 150.47L312.364 151.79C311.881 152.071 311.098 152.071 310.612 151.79L310.616 150.47C311.102 150.751 311.885 150.751 312.368 150.47ZM313.158 152.96L313.162 151.64C313.161 151.825 313.284 152.01 313.528 152.151L313.524 153.471C313.28 153.33 313.158 153.145 313.158 152.96ZM322.351 152.829L322.347 154.149C322.346 154.331 322.226 154.513 321.987 154.653L321.991 153.333C322.231 153.194 322.351 153.012 322.351 152.829Z" fill="#39404F"/>
<path d="M321.991 153.333L321.987 154.653L319.663 156.004L319.666 154.684L321.991 153.333ZM317.915 154.684L317.911 156.004L313.524 153.471L313.528 152.151L317.915 154.684Z" fill="#39404F"/>
<path d="M321.985 152.319C322.471 152.599 322.473 153.053 321.991 153.334L319.666 154.685C319.183 154.966 318.4 154.966 317.914 154.685L313.527 152.152C313.041 151.872 313.039 151.418 313.521 151.137L315.846 149.786C316.329 149.506 317.112 149.506 317.598 149.786L321.985 152.319Z" fill="#39404F"/>
<path d="M319.666 154.684L319.662 156.004C319.179 156.284 318.396 156.284 317.91 156.004L317.914 154.684C318.4 154.965 319.184 154.965 319.666 154.684ZM320.457 157.174L320.461 155.854C320.461 156.039 320.583 156.224 320.827 156.365L320.823 157.685C320.578 157.544 320.456 157.359 320.457 157.174ZM329.653 157.045L329.649 158.365C329.648 158.547 329.528 158.729 329.289 158.869L329.293 157.549C329.533 157.41 329.653 157.228 329.653 157.045Z" fill="#39404F"/>
<path d="M329.293 157.549L329.289 158.869L326.965 160.22L326.968 158.9L329.293 157.549ZM325.217 158.9L325.213 160.22L320.823 157.685L320.826 156.365L325.217 158.9Z" fill="#39404F"/>
<path d="M329.287 156.534C329.773 156.815 329.775 157.268 329.293 157.549L326.968 158.9C326.485 159.18 325.702 159.18 325.216 158.9L320.826 156.365C320.34 156.084 320.338 155.631 320.82 155.35L323.145 153.999C323.628 153.719 324.411 153.719 324.897 153.999L329.287 156.534Z" fill="#39404F"/>
<path d="M326.968 158.9L326.964 160.22C326.481 160.501 325.698 160.501 325.212 160.22L325.216 158.9C325.702 159.18 326.486 159.18 326.968 158.9ZM327.757 161.388L327.761 160.068C327.761 160.253 327.883 160.439 328.126 160.579L328.122 161.899C327.878 161.758 327.756 161.573 327.757 161.388ZM336.952 161.259L336.948 162.579C336.948 162.761 336.827 162.943 336.588 163.083L336.592 161.763C336.831 161.623 336.951 161.441 336.952 161.259ZM336.591 161.763L336.588 163.083L334.263 164.434L334.267 163.114L336.591 161.763Z" fill="#39404F"/>
<path d="M332.515 163.114L332.511 164.434L328.121 161.899L328.125 160.579L332.515 163.114ZM336.586 160.748C337.072 161.028 337.074 161.482 336.592 161.763L334.267 163.114C333.784 163.394 333.001 163.394 332.515 163.114L328.125 160.579C327.643 160.3 327.637 159.845 328.119 159.564L330.444 158.213C330.927 157.932 331.713 157.934 332.196 158.213L336.586 160.748Z" fill="#39404F"/>
<path d="M334.267 163.114L334.263 164.434C333.78 164.715 332.997 164.715 332.511 164.434L332.515 163.114C333.001 163.394 333.784 163.394 334.267 163.114ZM335.057 165.604L335.061 164.284C335.06 164.469 335.183 164.654 335.427 164.795L335.423 166.115C335.179 165.974 335.057 165.789 335.057 165.604ZM344.254 165.475L344.25 166.795C344.249 166.977 344.129 167.16 343.89 167.299L343.894 165.979C344.133 165.839 344.253 165.657 344.254 165.475ZM343.894 165.979L343.89 167.298L341.565 168.649L341.569 167.33L343.894 165.979ZM339.817 167.33L339.813 168.649L335.423 166.115L335.427 164.795L339.817 167.33Z" fill="#39404F"/>
<path d="M343.888 164.964C344.374 165.245 344.376 165.698 343.894 165.979L341.569 167.33C341.086 167.611 340.303 167.611 339.817 167.33L335.427 164.795C334.941 164.515 334.939 164.061 335.421 163.78L337.746 162.429C338.229 162.149 339.012 162.149 339.498 162.429L343.888 164.964Z" fill="#39404F"/>
<path d="M341.569 167.33L341.565 168.65C341.082 168.931 340.299 168.931 339.813 168.65L339.817 167.33C340.303 167.61 341.086 167.61 341.569 167.33Z" fill="#39404F"/>
<path d="M342.357 169.818L342.361 168.498C342.361 168.683 342.483 168.869 342.726 169.009L342.722 170.329C342.479 170.188 342.356 170.003 342.357 169.818ZM351.552 169.689L351.548 171.009C351.548 171.191 351.428 171.373 351.188 171.513L351.192 170.193C351.432 170.053 351.552 169.871 351.552 169.689ZM351.192 170.192L351.188 171.512L348.864 172.863L348.867 171.543L351.192 170.192ZM347.116 171.543L347.112 172.863L342.722 170.329L342.726 169.009L347.116 171.543Z" fill="#39404F"/>
<path d="M351.186 169.178C351.672 169.458 351.674 169.912 351.192 170.193L348.867 171.544C348.384 171.824 347.601 171.824 347.115 171.544L342.725 169.009C342.243 168.73 342.237 168.275 342.719 167.994L345.044 166.643C345.527 166.363 346.313 166.364 346.796 166.643L351.186 169.178Z" fill="#39404F"/>
<path d="M348.867 171.543L348.863 172.863C348.38 173.143 347.597 173.143 347.111 172.863L347.115 171.543C347.602 171.824 348.385 171.824 348.867 171.543Z" fill="#39404F"/>
<path d="M349.658 174.034L349.662 172.714C349.662 172.899 349.784 173.084 350.028 173.225L350.024 174.545C349.779 174.403 349.657 174.218 349.658 174.034ZM358.854 173.905L358.85 175.225C358.85 175.407 358.729 175.589 358.49 175.729L358.494 174.409C358.734 174.269 358.854 174.087 358.854 173.905ZM358.494 174.408L358.49 175.728L356.166 177.079L356.169 175.759L358.494 174.408Z" fill="#39404F"/>
<path d="M354.418 175.759L354.414 177.079L350.024 174.544L350.028 173.224L354.418 175.759Z" fill="#39404F"/>
<path d="M358.488 173.394C358.974 173.675 358.976 174.128 358.494 174.409L356.169 175.76C355.686 176.041 354.903 176.041 354.417 175.76L350.027 173.225C349.541 172.945 349.539 172.491 350.021 172.21L352.346 170.859C352.829 170.579 353.612 170.579 354.098 170.859L358.488 173.394Z" fill="#39404F"/>
<path d="M356.169 175.759L356.165 177.079C355.682 177.359 354.899 177.359 354.413 177.079L354.417 175.759C354.904 176.04 355.687 176.04 356.169 175.759Z" fill="#39404F"/>
<path d="M356.956 178.247L356.96 176.927C356.96 177.112 357.082 177.297 357.326 177.438L357.322 178.758C357.078 178.617 356.956 178.432 356.956 178.247ZM366.153 178.118L366.149 179.438C366.148 179.62 366.028 179.802 365.789 179.942L365.793 178.622C366.032 178.483 366.152 178.301 366.153 178.118Z" fill="#39404F"/>
<path d="M365.793 178.622L365.789 179.942L363.464 181.293L363.468 179.973L365.793 178.622ZM361.716 179.973L361.713 181.293L357.322 178.758L357.326 177.438L361.716 179.973Z" fill="#39404F"/>
<path d="M365.787 177.607C366.273 177.888 366.275 178.341 365.793 178.622L363.468 179.973C362.985 180.254 362.202 180.254 361.716 179.973L357.326 177.438C356.84 177.158 356.838 176.704 357.32 176.423L359.645 175.072C360.128 174.792 360.911 174.792 361.397 175.072L365.787 177.607Z" fill="#39404F"/>
<path d="M363.468 179.973L363.464 181.293C362.981 181.573 362.198 181.573 361.712 181.293L361.716 179.973C362.202 180.254 362.985 180.254 363.468 179.973Z" fill="#39404F"/>
<path d="M270.161 135.539L270.165 134.219C270.164 134.422 270.299 134.625 270.568 134.781L270.564 136.101C270.295 135.945 270.16 135.742 270.161 135.539ZM280.078 134.936L280.074 136.256C280.073 136.456 279.942 136.655 279.68 136.807L279.684 135.487C279.946 135.335 280.077 135.136 280.078 134.936ZM279.684 135.487L279.68 136.807L276.702 138.538L276.706 137.218L279.684 135.487Z" fill="#39404F"/>
<path d="M274.789 137.218L274.785 138.538L270.564 136.101L270.568 134.781L274.789 137.218Z" fill="#39404F"/>
<path d="M279.678 134.377C280.209 134.683 280.211 135.181 279.684 135.487L276.706 137.218C276.179 137.524 275.32 137.524 274.789 137.218L270.568 134.781C270.034 134.473 270.031 133.975 270.558 133.669L273.536 131.938C274.063 131.632 274.922 131.632 275.456 131.94L279.678 134.377Z" fill="#39404F"/>
<path d="M276.706 137.218L276.702 138.538C276.175 138.844 275.316 138.844 274.785 138.538L274.789 137.218C275.32 137.525 276.178 137.525 276.706 137.218Z" fill="#39404F"/>
<path d="M277.59 139.829L277.594 138.509C277.593 138.711 277.727 138.914 277.994 139.068L277.99 140.388C277.723 140.234 277.59 140.031 277.59 139.829ZM287.507 139.226L287.503 140.546C287.502 140.746 287.371 140.944 287.11 141.097L287.114 139.777C287.375 139.625 287.506 139.426 287.507 139.226ZM287.114 139.777L287.11 141.097L284.131 142.827L284.135 141.508L287.114 139.777Z" fill="#39404F"/>
<path d="M282.215 141.505L282.211 142.825L277.99 140.388L277.994 139.068L282.215 141.505ZM287.104 138.664C287.638 138.972 287.641 139.47 287.114 139.776L284.136 141.507C283.609 141.813 282.75 141.813 282.216 141.505L277.995 139.068C277.464 138.762 277.462 138.264 277.989 137.958L280.968 136.227C281.495 135.921 282.354 135.921 282.885 136.227L287.104 138.664Z" fill="#39404F"/>
<path d="M284.135 141.508L284.131 142.828C283.604 143.134 282.745 143.134 282.211 142.826L282.215 141.506C282.749 141.814 283.608 141.814 284.135 141.508Z" fill="#39404F"/>
<path d="M284.889 144.042L284.893 142.722C284.892 142.925 285.027 143.128 285.296 143.284L285.292 144.604C285.023 144.449 284.889 144.245 284.889 144.042ZM294.806 143.439L294.802 144.759C294.801 144.959 294.67 145.158 294.408 145.31L294.412 143.99C294.674 143.838 294.805 143.639 294.806 143.439Z" fill="#39404F"/>
<path d="M294.412 143.99L294.408 145.31L291.43 147.041L291.434 145.721L294.412 143.99ZM289.517 145.721L289.513 147.041L285.292 144.604L285.296 143.284L289.517 145.721Z" fill="#39404F"/>
<path d="M294.406 142.88C294.937 143.186 294.94 143.684 294.412 143.99L291.433 145.721C290.906 146.027 290.047 146.027 289.516 145.721L285.295 143.284C284.761 142.976 284.758 142.478 285.285 142.172L288.264 140.441C288.791 140.135 289.65 140.135 290.184 140.443L294.406 142.88Z" fill="#39404F"/>
<path d="M291.434 145.721L291.43 147.041C290.903 147.347 290.044 147.347 289.513 147.041L289.517 145.721C290.048 146.028 290.906 146.028 291.434 145.721Z" fill="#39404F"/>
<path d="M263.843 139.041L263.847 137.721C263.846 137.917 263.976 138.114 264.237 138.265L264.233 139.585C263.972 139.434 263.842 139.237 263.843 139.041ZM280.973 142.626L280.969 143.946C280.969 144.139 280.842 144.332 280.589 144.479L280.593 143.159C280.846 143.012 280.973 142.819 280.973 142.626ZM280.593 143.159L280.589 144.479L277.587 146.224L277.59 144.904L280.593 143.159Z" fill="#39404F"/>
<path d="M275.732 144.902L275.728 146.222L264.233 139.585L264.236 138.265L275.732 144.902ZM280.583 142.082C281.1 142.38 281.103 142.862 280.592 143.158L277.589 144.903C277.079 145.199 276.248 145.199 275.731 144.901L264.235 138.264C263.718 137.966 263.715 137.484 264.226 137.188L267.228 135.443C267.738 135.147 268.569 135.147 269.086 135.445L280.583 142.082Z" fill="#39404F"/>
<path d="M277.59 144.904L277.586 146.224C277.076 146.52 276.245 146.52 275.728 146.222L275.732 144.902C276.249 145.2 277.08 145.2 277.59 144.904Z" fill="#39404F"/>
<path d="M278.197 147.342L278.201 146.022C278.2 146.225 278.335 146.428 278.603 146.583L278.599 147.903C278.33 147.748 278.196 147.544 278.197 147.342ZM288.116 146.735L288.112 148.055C288.111 148.255 287.979 148.455 287.715 148.609L287.719 147.289C287.983 147.136 288.115 146.935 288.116 146.735Z" fill="#39404F"/>
<path d="M287.719 147.289L287.715 148.609L284.74 150.338L284.744 149.018L287.719 147.289ZM282.824 149.02L282.82 150.34L278.599 147.903L278.603 146.583L282.824 149.02Z" fill="#39404F"/>
<path d="M287.716 146.177C288.247 146.483 288.249 146.981 287.719 147.289L284.744 149.018C284.213 149.326 283.355 149.326 282.824 149.02L278.603 146.583C278.069 146.275 278.066 145.777 278.597 145.469L281.572 143.74C282.103 143.432 282.961 143.432 283.495 143.74L287.716 146.177Z" fill="#39404F"/>
<path d="M284.744 149.018L284.74 150.338C284.209 150.646 283.351 150.646 282.82 150.34L282.824 149.02C283.355 149.326 284.214 149.326 284.744 149.018Z" fill="#39404F"/>
<path d="M292.191 148.259L292.195 146.939C292.194 147.141 292.328 147.344 292.595 147.498L292.591 148.818C292.323 148.664 292.19 148.461 292.191 148.259ZM302.106 147.656L302.102 148.976C302.101 149.175 301.971 149.374 301.71 149.526L301.714 148.206C301.975 148.055 302.106 147.856 302.106 147.656Z" fill="#39404F"/>
<path d="M301.714 148.206L301.71 149.526L298.732 151.257L298.736 149.937L301.714 148.206ZM296.816 149.935L296.812 151.255L292.59 148.818L292.594 147.498L296.816 149.935Z" fill="#39404F"/>
<path d="M301.704 147.094C302.235 147.4 302.241 147.9 301.714 148.206L298.735 149.937C298.208 150.243 297.346 150.241 296.815 149.935L292.594 147.498C292.063 147.192 292.06 146.694 292.588 146.388L295.567 144.657C296.094 144.351 296.953 144.351 297.484 144.657L301.704 147.094Z" fill="#39404F"/>
<path d="M298.736 149.937L298.732 151.257C298.205 151.563 297.343 151.561 296.812 151.255L296.816 149.935C297.346 150.242 298.208 150.244 298.736 149.937Z" fill="#39404F"/>
<path d="M285.622 151.63L285.626 150.31C285.625 150.512 285.759 150.714 286.025 150.868L286.021 152.188C285.755 152.034 285.622 151.832 285.622 151.63ZM295.541 151.023L295.537 152.343C295.536 152.543 295.404 152.743 295.141 152.896L295.145 151.576C295.409 151.423 295.541 151.224 295.541 151.023Z" fill="#39404F"/>
<path d="M295.145 151.577L295.141 152.896L292.166 154.625L292.17 153.306L295.145 151.577ZM290.247 153.306L290.243 154.625L286.022 152.188L286.025 150.868L290.247 153.306ZM295.139 150.462C295.673 150.77 295.676 151.268 295.145 151.576L292.17 153.305C291.639 153.613 290.781 153.613 290.247 153.305L286.026 150.868C285.495 150.562 285.492 150.064 286.023 149.756L288.998 148.027C289.529 147.719 290.387 147.719 290.918 148.025L295.139 150.462Z" fill="#39404F"/>
<path d="M292.17 153.306L292.166 154.626C291.635 154.934 290.777 154.934 290.243 154.626L290.247 153.306C290.781 153.614 291.64 153.614 292.17 153.306Z" fill="#39404F"/>
<path d="M299.49 152.472L299.494 151.152C299.494 151.355 299.628 151.558 299.897 151.714L299.893 153.034C299.623 152.878 299.489 152.675 299.49 152.472ZM309.406 151.869L309.402 153.189C309.401 153.389 309.27 153.588 309.008 153.74L309.012 152.42C309.275 152.268 309.406 152.069 309.406 151.869Z" fill="#39404F"/>
<path d="M309.013 152.42L309.009 153.74L306.03 155.471L306.034 154.151L309.013 152.42ZM304.118 154.151L304.114 155.471L299.893 153.034L299.896 151.714L304.118 154.151Z" fill="#39404F"/>
<path d="M309.007 151.31C309.538 151.616 309.54 152.114 309.013 152.42L306.034 154.151C305.507 154.457 304.648 154.457 304.117 154.151L299.896 151.714C299.362 151.406 299.359 150.908 299.886 150.602L302.864 148.871C303.391 148.565 304.25 148.565 304.784 148.873L309.007 151.31Z" fill="#39404F"/>
<path d="M306.034 154.151L306.03 155.471C305.503 155.777 304.644 155.777 304.113 155.471L304.117 154.151C304.648 154.457 305.507 154.457 306.034 154.151Z" fill="#39404F"/>
<path d="M293.048 155.917L293.052 154.597C293.051 154.799 293.185 155.001 293.451 155.155L293.447 156.475C293.181 156.322 293.048 156.12 293.048 155.917ZM302.968 155.311L302.964 156.631C302.964 156.831 302.831 157.031 302.568 157.184L302.572 155.864C302.835 155.711 302.967 155.511 302.968 155.311Z" fill="#39404F"/>
<path d="M302.571 155.864L302.568 157.184L299.593 158.913L299.596 157.593L302.571 155.864ZM297.673 157.593L297.669 158.913L293.448 156.476L293.451 155.156L297.673 157.593Z" fill="#39404F"/>
<path d="M302.565 154.75C303.099 155.058 303.102 155.556 302.571 155.864L299.596 157.593C299.065 157.901 298.207 157.901 297.673 157.593L293.452 155.156C292.921 154.85 292.919 154.352 293.449 154.044L296.424 152.315C296.955 152.007 297.813 152.007 298.344 152.313L302.565 154.75Z" fill="#39404F"/>
<path d="M299.596 157.593L299.592 158.913C299.061 159.221 298.203 159.221 297.669 158.913L297.673 157.593C298.207 157.901 299.066 157.901 299.596 157.593Z" fill="#39404F"/>
<path d="M306.791 156.689L306.795 155.369C306.794 155.571 306.928 155.774 307.195 155.928L307.191 157.248C306.924 157.093 306.791 156.891 306.791 156.689ZM316.705 156.083L316.701 157.403C316.701 157.603 316.569 157.802 316.307 157.954L316.311 156.634C316.573 156.482 316.704 156.282 316.705 156.083Z" fill="#39404F"/>
<path d="M316.311 156.634L316.307 157.954L313.329 159.685L313.333 158.365L316.311 156.634ZM311.416 158.365L311.412 159.685L307.191 157.248L307.195 155.928L311.416 158.365Z" fill="#39404F"/>
<path d="M316.305 155.524C316.836 155.83 316.839 156.328 316.311 156.634L313.332 158.365C312.805 158.671 311.946 158.671 311.415 158.365L307.194 155.928C306.663 155.622 306.661 155.124 307.188 154.818L310.166 153.087C310.693 152.781 311.552 152.781 312.083 153.087L316.305 155.524Z" fill="#39404F"/>
<path d="M313.333 158.365L313.329 159.685C312.802 159.991 311.943 159.991 311.412 159.685L311.416 158.365C311.947 158.671 312.805 158.671 313.333 158.365Z" fill="#39404F"/>
<path d="M300.474 160.205L300.478 158.885C300.477 159.087 300.611 159.289 300.877 159.443L300.873 160.763C300.607 160.609 300.474 160.407 300.474 160.205ZM310.393 159.598L310.389 160.918C310.388 161.118 310.256 161.318 309.993 161.471L309.997 160.151C310.261 159.998 310.393 159.798 310.393 159.598Z" fill="#39404F"/>
<path d="M309.997 160.151L309.994 161.471L307.018 163.2L307.022 161.88L309.997 160.151ZM305.099 161.88L305.095 163.2L300.874 160.763L300.878 159.443L305.099 161.88Z" fill="#39404F"/>
<path d="M309.991 159.037C310.525 159.345 310.528 159.843 309.997 160.151L307.022 161.88C306.491 162.188 305.633 162.188 305.099 161.88L300.878 159.443C300.347 159.137 300.344 158.639 300.875 158.331L303.85 156.602C304.381 156.294 305.239 156.294 305.77 156.6L309.991 159.037Z" fill="#39404F"/>
<path d="M307.022 161.88L307.018 163.2C306.487 163.508 305.629 163.508 305.095 163.2L305.099 161.88C305.633 162.189 306.492 162.189 307.022 161.88Z" fill="#39404F"/>
<path d="M314.09 160.902L314.094 159.582C314.093 159.785 314.228 159.988 314.497 160.144L314.493 161.464C314.224 161.308 314.09 161.104 314.09 160.902ZM324.007 160.298L324.003 161.618C324.003 161.818 323.871 162.017 323.61 162.169L323.614 160.849C323.875 160.698 324.006 160.498 324.007 160.298Z" fill="#39404F"/>
<path d="M323.613 160.85L323.61 162.17L320.631 163.9L320.635 162.581L323.613 160.85ZM318.718 162.581L318.714 163.9L314.493 161.463L314.497 160.143L318.718 162.581Z" fill="#39404F"/>
<path d="M323.607 159.74C324.138 160.046 324.141 160.544 323.613 160.85L320.635 162.581C320.108 162.887 319.249 162.887 318.718 162.581L314.497 160.144C313.963 159.836 313.96 159.338 314.487 159.032L317.466 157.301C317.993 156.995 318.852 156.995 319.386 157.303L323.607 159.74Z" fill="#39404F"/>
<path d="M320.635 162.581L320.631 163.901C320.104 164.207 319.245 164.207 318.714 163.901L318.718 162.581C319.249 162.887 320.107 162.887 320.635 162.581Z" fill="#39404F"/>
<path d="M307.9 164.492L307.904 163.172C307.903 163.374 308.037 163.576 308.303 163.73L308.299 165.05C308.033 164.897 307.9 164.694 307.9 164.492ZM317.82 163.886L317.816 165.206C317.815 165.406 317.683 165.606 317.42 165.759L317.424 164.439C317.687 164.286 317.819 164.086 317.82 163.886ZM317.423 164.439L317.42 165.759L314.445 167.488L314.448 166.168L317.423 164.439ZM312.525 166.168L312.521 167.488L308.3 165.051L308.304 163.731L312.525 166.168Z" fill="#39404F"/>
<path d="M317.417 163.325C317.951 163.633 317.954 164.131 317.423 164.439L314.448 166.168C313.917 166.476 313.059 166.476 312.525 166.168L308.304 163.731C307.773 163.425 307.77 162.927 308.301 162.619L311.276 160.89C311.807 160.582 312.665 160.582 313.196 160.888L317.417 163.325Z" fill="#39404F"/>
<path d="M314.448 166.168L314.444 167.488C313.913 167.796 313.055 167.796 312.521 167.488L312.525 166.168C313.059 166.476 313.918 166.476 314.448 166.168Z" fill="#39404F"/>
<path d="M321.39 165.115L321.394 163.795C321.393 163.998 321.528 164.202 321.796 164.357L321.792 165.677C321.524 165.522 321.389 165.319 321.39 165.115ZM331.305 164.512L331.301 165.832C331.3 166.032 331.169 166.231 330.907 166.383L330.911 165.063C331.174 164.911 331.305 164.712 331.305 164.512Z" fill="#39404F"/>
<path d="M330.912 165.064L330.908 166.383L327.93 168.114L327.933 166.794L330.912 165.064ZM326.017 166.794L326.013 168.114L321.792 165.677L321.795 164.357L326.017 166.794Z" fill="#39404F"/>
<path d="M330.906 163.953C331.437 164.259 331.44 164.757 330.912 165.063L327.933 166.794C327.406 167.1 326.547 167.1 326.016 166.794L321.795 164.357C321.264 164.051 321.258 163.551 321.785 163.245L324.764 161.514C325.291 161.208 326.153 161.21 326.684 161.516L330.906 163.953Z" fill="#39404F"/>
<path d="M327.933 166.794L327.929 168.114C327.402 168.42 326.543 168.42 326.012 168.114L326.016 166.794C326.547 167.101 327.406 167.101 327.933 166.794Z" fill="#39404F"/>
<path d="M315.326 168.78L315.33 167.46C315.329 167.662 315.463 167.864 315.729 168.018L315.725 169.338C315.459 169.184 315.326 168.982 315.326 168.78ZM325.246 168.173L325.242 169.493C325.241 169.693 325.109 169.893 324.846 170.046L324.85 168.726C325.113 168.573 325.245 168.373 325.246 168.173Z" fill="#39404F"/>
<path d="M324.849 168.726L324.846 170.046L321.871 171.775L321.874 170.455L324.849 168.726ZM319.951 170.455L319.947 171.775L315.726 169.338L315.73 168.018L319.951 170.455Z" fill="#39404F"/>
<path d="M324.843 167.612C325.377 167.92 325.38 168.418 324.849 168.726L321.874 170.455C321.343 170.763 320.485 170.763 319.951 170.455L315.73 168.018C315.199 167.712 315.197 167.214 315.727 166.906L318.702 165.177C319.233 164.869 320.091 164.869 320.622 165.175L324.843 167.612Z" fill="#39404F"/>
<path d="M321.874 170.455L321.87 171.775C321.339 172.083 320.481 172.083 319.947 171.775L319.951 170.455C320.485 170.764 321.344 170.764 321.874 170.455Z" fill="#39404F"/>
<path d="M328.69 169.332L328.694 168.012C328.693 168.214 328.827 168.417 329.094 168.571L329.09 169.891C328.823 169.737 328.69 169.534 328.69 169.332ZM338.607 168.729L338.603 170.049C338.602 170.249 338.471 170.447 338.21 170.599L338.214 169.279C338.475 169.127 338.606 168.928 338.607 168.729Z" fill="#39404F"/>
<path d="M338.214 169.279L338.21 170.599L335.232 172.33L335.235 171.01L338.214 169.279ZM333.315 171.008L333.311 172.328L329.09 169.891L329.094 168.571L333.315 171.008Z" fill="#39404F"/>
<path d="M338.204 168.167C338.738 168.475 338.741 168.973 338.214 169.279L335.236 171.01C334.709 171.316 333.85 171.316 333.316 171.008L329.095 168.571C328.564 168.265 328.562 167.767 329.089 167.461L332.068 165.73C332.595 165.424 333.454 165.424 333.985 165.73L338.204 168.167Z" fill="#39404F"/>
<path d="M335.235 171.01L335.231 172.33C334.704 172.636 333.845 172.636 333.311 172.328L333.315 171.008C333.849 171.317 334.708 171.317 335.235 171.01Z" fill="#39404F"/>
<path d="M322.753 173.067L322.757 171.747C322.756 171.949 322.89 172.151 323.156 172.305L323.152 173.625C322.885 173.471 322.752 173.269 322.753 173.067ZM332.672 172.461L332.668 173.781C332.668 173.981 332.536 174.181 332.272 174.334L332.276 173.014C332.539 172.861 332.671 172.661 332.672 172.461Z" fill="#39404F"/>
<path d="M332.275 173.014L332.272 174.334L329.297 176.063L329.3 174.743L332.275 173.014ZM327.377 174.743L327.373 176.063L323.152 173.625L323.156 172.306L327.377 174.743Z" fill="#39404F"/>
<path d="M332.269 171.9C332.803 172.208 332.806 172.706 332.275 173.014L329.3 174.743C328.769 175.051 327.911 175.051 327.377 174.743L323.156 172.306C322.625 172 322.622 171.502 323.153 171.194L326.128 169.465C326.659 169.157 327.517 169.157 328.048 169.463L332.269 171.9Z" fill="#39404F"/>
<path d="M329.3 174.743L329.296 176.063C328.765 176.371 327.907 176.371 327.373 176.063L327.377 174.743C327.911 175.051 328.77 175.051 329.3 174.743Z" fill="#39404F"/>
<path d="M335.989 173.545L335.993 172.225C335.992 172.428 336.127 172.631 336.396 172.787L336.392 174.107C336.123 173.951 335.989 173.748 335.989 173.545ZM345.906 172.942L345.902 174.262C345.902 174.462 345.77 174.661 345.509 174.813L345.513 173.493C345.774 173.341 345.905 173.142 345.906 172.942Z" fill="#39404F"/>
<path d="M345.512 173.493L345.509 174.813L342.53 176.544L342.534 175.224L345.512 173.493ZM340.617 175.224L340.613 176.544L336.392 174.107L336.396 172.787L340.617 175.224Z" fill="#39404F"/>
<path d="M345.506 172.383C346.037 172.689 346.039 173.187 345.512 173.493L342.533 175.224C342.006 175.53 341.147 175.53 340.616 175.224L336.395 172.787C335.861 172.479 335.858 171.981 336.385 171.675L339.363 169.944C339.89 169.638 340.749 169.638 341.283 169.946L345.506 172.383Z" fill="#39404F"/>
<path d="M342.534 175.224L342.53 176.544C342.003 176.85 341.144 176.85 340.613 176.544L340.617 175.224C341.148 175.53 342.007 175.53 342.534 175.224Z" fill="#39404F"/>
<path d="M330.179 177.355L330.183 176.035C330.183 176.237 330.316 176.439 330.583 176.593L330.579 177.913C330.311 177.759 330.178 177.557 330.179 177.355ZM340.098 176.748L340.094 178.068C340.093 178.268 339.961 178.468 339.698 178.621L339.702 177.301C339.965 177.148 340.097 176.948 340.098 176.748Z" fill="#39404F"/>
<path d="M339.702 177.301L339.698 178.621L336.723 180.35L336.727 179.03L339.702 177.301ZM334.803 179.03L334.799 180.35L330.578 177.913L330.582 176.593L334.803 179.03Z" fill="#39404F"/>
<path d="M339.695 176.187C340.229 176.495 340.232 176.993 339.701 177.301L336.726 179.03C336.195 179.338 335.337 179.338 334.803 179.03L330.582 176.593C330.051 176.287 330.048 175.789 330.579 175.481L333.554 173.752C334.085 173.444 334.943 173.444 335.474 173.75L339.695 176.187Z" fill="#39404F"/>
<path d="M336.727 179.03L336.723 180.35C336.192 180.658 335.334 180.658 334.8 180.35L334.804 179.03C335.337 179.338 336.196 179.338 336.727 179.03Z" fill="#39404F"/>
<path d="M343.359 177.811L343.363 176.491C343.362 176.687 343.492 176.883 343.75 177.032L343.746 178.352C343.487 178.203 343.358 178.007 343.359 177.811ZM360.487 181.393L360.483 182.713C360.482 182.906 360.355 183.099 360.102 183.246L360.106 181.926C360.359 181.78 360.486 181.586 360.487 181.393Z" fill="#39404F"/>
<path d="M360.106 181.927L360.102 183.247L357.1 184.991L357.104 183.672L360.106 181.927ZM355.249 183.672L355.245 184.991L343.746 178.352L343.75 177.033L355.249 183.672ZM360.1 180.852C360.613 181.148 360.616 181.63 360.106 181.926L357.103 183.671C356.593 183.967 355.762 183.967 355.248 183.671L343.749 177.032C343.236 176.736 343.233 176.254 343.743 175.958L346.746 174.213C347.256 173.916 348.087 173.916 348.601 174.213L360.1 180.852Z" fill="#39404F"/>
<path d="M357.104 183.672L357.1 184.992C356.59 185.288 355.759 185.288 355.245 184.992L355.249 183.672C355.762 183.968 356.593 183.968 357.104 183.672Z" fill="#39404F"/>
<path d="M337.605 181.642L337.609 180.322C337.608 180.524 337.742 180.726 338.008 180.88L338.004 182.2C337.737 182.046 337.604 181.844 337.605 181.642ZM347.522 181.036L347.518 182.356C347.517 182.556 347.386 182.756 347.123 182.909L347.127 181.589C347.391 181.436 347.522 181.236 347.522 181.036Z" fill="#39404F"/>
<path d="M347.128 181.589L347.124 182.909L344.149 184.637L344.152 183.318L347.128 181.589ZM342.229 183.318L342.225 184.637L338.004 182.2L338.008 180.88L342.229 183.318Z" fill="#39404F"/>
<path d="M347.121 180.474C347.652 180.78 347.658 181.28 347.127 181.588L344.152 183.317C343.621 183.625 342.759 183.623 342.229 183.317L338.008 180.88C337.477 180.574 337.475 180.076 338.005 179.768L340.98 178.039C341.511 177.731 342.369 177.731 342.9 178.037L347.121 180.474Z" fill="#39404F"/>
<path d="M344.152 183.318L344.148 184.638C343.617 184.946 342.755 184.944 342.224 184.638L342.228 183.318C342.76 183.624 343.622 183.626 344.152 183.318Z" fill="#39404F"/>
<path d="M345.031 185.929L345.035 184.609C345.034 184.811 345.168 185.013 345.434 185.167L345.43 186.487C345.163 186.334 345.03 186.132 345.031 185.929ZM354.949 185.323L354.945 186.643C354.944 186.843 354.813 187.043 354.55 187.196L354.554 185.876C354.817 185.723 354.948 185.523 354.949 185.323Z" fill="#39404F"/>
<path d="M354.554 185.876L354.55 187.196L351.575 188.925L351.579 187.605L354.554 185.876ZM349.655 187.605L349.651 188.925L345.43 186.488L345.434 185.168L349.655 187.605Z" fill="#39404F"/>
<path d="M354.547 184.762C355.078 185.068 355.084 185.568 354.553 185.876L351.578 187.605C351.047 187.913 350.185 187.911 349.655 187.605L345.434 185.168C344.903 184.862 344.901 184.364 345.431 184.056L348.406 182.327C348.937 182.019 349.795 182.019 350.326 182.325L354.547 184.762Z" fill="#39404F"/>
<path d="M351.579 187.605L351.575 188.925C351.044 189.233 350.182 189.231 349.652 188.925L349.656 187.605C350.186 187.911 351.048 187.913 351.579 187.605Z" fill="#39404F"/>
<path d="M257.889 142.591L257.893 141.271C257.892 141.524 258.059 141.777 258.395 141.971L258.391 143.291C258.055 143.098 257.888 142.844 257.889 142.591ZM267.923 142.258L267.919 143.578C267.918 143.828 267.754 144.077 267.425 144.268L267.429 142.948C267.758 142.757 267.923 142.507 267.923 142.258Z" fill="#39404F"/>
<path d="M267.43 142.948L267.426 144.268L264.957 145.702L264.961 144.383L267.43 142.948ZM262.571 144.383L262.567 145.702L258.39 143.291L258.394 141.971L262.571 144.383Z" fill="#39404F"/>
<path d="M267.425 141.561C268.087 141.943 268.09 142.564 267.429 142.948L264.961 144.383C264.304 144.765 263.232 144.765 262.57 144.383L258.393 141.972C257.728 141.588 257.724 140.967 258.382 140.585L260.85 139.15C261.511 138.766 262.582 138.766 263.247 139.15L267.425 141.561Z" fill="#39404F"/>
<path d="M264.961 144.383L264.957 145.703C264.3 146.085 263.228 146.085 262.566 145.703L262.57 144.383C263.232 144.764 264.304 144.764 264.961 144.383Z" fill="#39404F"/>
<path d="M265.297 146.969L265.301 145.649C265.3 145.852 265.435 146.055 265.704 146.211L265.7 147.531C265.43 147.375 265.296 147.172 265.297 146.969ZM275.213 146.366L275.209 147.686C275.208 147.886 275.077 148.085 274.815 148.237L274.819 146.917C275.081 146.765 275.213 146.566 275.213 146.366Z" fill="#39404F"/>
<path d="M274.819 146.917L274.816 148.237L271.837 149.968L271.841 148.648L274.819 146.917ZM269.925 148.648L269.921 149.968L265.699 147.531L265.703 146.211L269.925 148.648Z" fill="#39404F"/>
<path d="M274.813 145.807C275.344 146.113 275.347 146.611 274.819 146.917L271.841 148.648C271.314 148.954 270.455 148.954 269.924 148.648L265.703 146.211C265.169 145.903 265.166 145.405 265.693 145.099L268.672 143.368C269.199 143.062 270.058 143.062 270.592 143.37L274.813 145.807Z" fill="#39404F"/>
<path d="M271.841 148.648L271.837 149.968C271.31 150.274 270.451 150.274 269.92 149.968L269.924 148.648C270.455 148.954 271.314 148.954 271.841 148.648Z" fill="#39404F"/>
<path d="M272.089 150.89L272.093 149.57C272.092 149.773 272.227 149.976 272.496 150.132L272.492 151.452C272.222 151.297 272.088 151.093 272.089 150.89ZM282.005 150.287L282.001 151.607C282 151.807 281.869 152.006 281.607 152.158L281.611 150.838C281.874 150.686 282.005 150.487 282.005 150.287Z" fill="#39404F"/>
<path d="M281.611 150.839L281.608 152.158L278.629 153.889L278.633 152.569L281.611 150.839ZM276.716 152.569L276.713 153.889L272.491 151.452L272.495 150.132L276.716 152.569Z" fill="#39404F"/>
<path d="M281.605 149.728C282.136 150.034 282.139 150.532 281.611 150.838L278.633 152.569C278.106 152.875 277.247 152.875 276.716 152.569L272.495 150.132C271.961 149.824 271.958 149.326 272.485 149.02L275.464 147.289C275.991 146.983 276.85 146.983 277.384 147.291L281.605 149.728Z" fill="#39404F"/>
<path d="M278.633 152.569L278.629 153.889C278.102 154.195 277.243 154.195 276.712 153.889L276.716 152.569C277.247 152.876 278.106 152.876 278.633 152.569Z" fill="#39404F"/>
<path d="M251.302 146.603L251.306 145.283C251.305 145.486 251.44 145.69 251.708 145.845L251.704 147.165C251.436 147.01 251.302 146.806 251.302 146.603ZM261.218 146L261.214 147.32C261.213 147.52 261.082 147.719 260.82 147.871L260.824 146.551C261.086 146.399 261.217 146.2 261.218 146Z" fill="#39404F"/>
<path d="M260.824 146.551L260.82 147.871L257.842 149.602L257.846 148.282L260.824 146.551ZM255.929 148.282L255.925 149.602L251.704 147.165L251.708 145.845L255.929 148.282Z" fill="#39404F"/>
<path d="M260.818 145.441C261.349 145.747 261.352 146.245 260.824 146.551L257.846 148.282C257.319 148.588 256.46 148.588 255.929 148.282L251.708 145.845C251.177 145.539 251.171 145.039 251.698 144.733L254.677 143.002C255.204 142.696 256.066 142.698 256.597 143.004L260.818 145.441Z" fill="#39404F"/>
<path d="M257.846 148.282L257.842 149.602C257.315 149.908 256.456 149.908 255.925 149.602L255.929 148.282C256.46 148.588 257.318 148.588 257.846 148.282Z" fill="#39404F"/>
<path d="M258.638 150.839L258.642 149.519C258.641 149.722 258.776 149.925 259.045 150.081L259.041 151.401C258.771 151.245 258.637 151.042 258.638 150.839ZM268.554 150.236L268.55 151.556C268.549 151.756 268.418 151.955 268.156 152.107L268.16 150.787C268.423 150.635 268.554 150.435 268.554 150.236Z" fill="#39404F"/>
<path d="M268.161 150.787L268.157 152.107L265.178 153.838L265.182 152.518L268.161 150.787ZM263.266 152.518L263.262 153.838L259.041 151.4L259.044 150.081L263.266 152.518Z" fill="#39404F"/>
<path d="M268.154 149.677C268.685 149.983 268.687 150.481 268.16 150.787L265.181 152.518C264.654 152.824 263.795 152.824 263.264 152.518L259.043 150.081C258.509 149.773 258.506 149.275 259.033 148.969L262.012 147.238C262.539 146.932 263.398 146.932 263.932 147.24L268.154 149.677Z" fill="#39404F"/>
<path d="M265.182 152.518L265.178 153.838C264.651 154.144 263.792 154.144 263.261 153.838L263.265 152.518C263.796 152.824 264.655 152.824 265.182 152.518Z" fill="#39404F"/>
<path d="M279.514 155.179L279.518 153.859C279.517 154.061 279.651 154.264 279.918 154.418L279.914 155.738C279.647 155.583 279.514 155.381 279.514 155.179ZM289.431 154.576L289.427 155.896C289.426 156.096 289.295 156.295 289.034 156.447L289.038 155.127C289.299 154.974 289.43 154.775 289.431 154.576ZM289.038 155.127L289.034 156.446L286.055 158.177L286.059 156.857L289.038 155.127Z" fill="#39404F"/>
<path d="M284.139 156.855L284.135 158.175L279.914 155.738L279.918 154.418L284.139 156.855Z" fill="#39404F"/>
<path d="M289.028 154.014C289.562 154.322 289.565 154.82 289.038 155.126L286.059 156.857C285.532 157.163 284.673 157.163 284.139 156.855L279.918 154.418C279.387 154.112 279.384 153.614 279.912 153.308L282.89 151.577C283.417 151.271 284.276 151.271 284.807 151.577L289.028 154.014Z" fill="#39404F"/>
<path d="M286.059 156.857L286.055 158.177C285.528 158.483 284.669 158.483 284.135 158.175L284.139 156.855C284.673 157.163 285.532 157.163 286.059 156.857Z" fill="#39404F"/>
<path d="M286.94 159.466L286.944 158.146C286.943 158.348 287.077 158.551 287.344 158.705L287.34 160.025C287.073 159.871 286.94 159.668 286.94 159.466ZM296.857 158.863L296.853 160.183C296.852 160.382 296.721 160.581 296.46 160.733L296.464 159.413C296.725 159.261 296.856 159.062 296.857 158.863Z" fill="#39404F"/>
<path d="M296.464 159.413L296.46 160.733L293.481 162.464L293.485 161.144L296.464 159.413ZM291.565 161.142L291.561 162.462L287.34 160.025L287.344 158.705L291.565 161.142Z" fill="#39404F"/>
<path d="M296.454 158.301C296.988 158.609 296.991 159.107 296.464 159.413L293.486 161.144C292.959 161.45 292.1 161.45 291.566 161.142L287.345 158.705C286.814 158.399 286.812 157.901 287.339 157.595L290.318 155.864C290.845 155.558 291.704 155.558 292.235 155.864L296.454 158.301Z" fill="#39404F"/>
<path d="M293.485 161.144L293.481 162.464C292.954 162.77 292.095 162.77 291.561 162.462L291.565 161.142C292.099 161.451 292.958 161.451 293.485 161.144Z" fill="#39404F"/>
<path d="M294.366 163.754L294.37 162.434C294.369 162.636 294.503 162.839 294.77 162.993L294.766 164.313C294.499 164.158 294.366 163.956 294.366 163.754ZM304.283 163.15L304.279 164.47C304.279 164.67 304.147 164.868 303.886 165.021L303.89 163.701C304.151 163.549 304.282 163.35 304.283 163.15Z" fill="#39404F"/>
<path d="M303.89 163.701L303.886 165.021L300.908 166.752L300.911 165.432L303.89 163.701ZM298.991 165.43L298.987 166.75L294.766 164.312L294.77 162.993L298.991 165.43Z" fill="#39404F"/>
<path d="M303.88 162.589C304.414 162.897 304.417 163.395 303.89 163.701L300.912 165.432C300.385 165.738 299.526 165.738 298.992 165.43L294.771 162.993C294.24 162.687 294.237 162.189 294.765 161.883L297.744 160.152C298.271 159.846 299.13 159.846 299.661 160.152L303.88 162.589Z" fill="#39404F"/>
<path d="M300.911 165.432L300.907 166.752C300.38 167.058 299.521 167.058 298.987 166.75L298.991 165.43C299.525 165.738 300.384 165.738 300.911 165.432Z" fill="#39404F"/>
<path d="M301.792 168.041L301.796 166.721C301.795 166.923 301.929 167.126 302.196 167.28L302.192 168.6C301.925 168.446 301.792 168.243 301.792 168.041ZM311.709 167.438L311.705 168.758C311.704 168.957 311.573 169.156 311.312 169.308L311.316 167.988C311.577 167.836 311.708 167.637 311.709 167.438Z" fill="#39404F"/>
<path d="M311.316 167.988L311.312 169.308L308.333 171.039L308.337 169.719L311.316 167.988ZM306.417 169.717L306.413 171.037L302.192 168.6L302.196 167.28L306.417 169.717Z" fill="#39404F"/>
<path d="M311.306 166.876C311.84 167.184 311.843 167.682 311.316 167.988L308.337 169.719C307.81 170.025 306.951 170.025 306.417 169.717L302.196 167.28C301.665 166.974 301.662 166.476 302.19 166.17L305.168 164.439C305.695 164.133 306.554 164.133 307.085 164.439L311.306 166.876Z" fill="#39404F"/>
<path d="M308.337 169.719L308.333 171.039C307.806 171.345 306.947 171.345 306.413 171.037L306.417 169.717C306.951 170.025 307.81 170.025 308.337 169.719Z" fill="#39404F"/>
<path d="M265.792 154.969L265.796 153.649C265.795 153.852 265.93 154.055 266.199 154.211L266.195 155.531C265.925 155.375 265.791 155.172 265.792 154.969ZM306.356 172.061L306.352 173.381C306.351 173.581 306.22 173.78 305.958 173.932L305.962 172.612C306.225 172.46 306.356 172.26 306.356 172.061Z" fill="#39404F"/>
<path d="M305.963 172.612L305.959 173.932L302.981 175.663L302.984 174.343L305.963 172.612ZM301.068 174.343L301.064 175.663L266.194 155.531L266.198 154.211L301.068 174.343Z" fill="#39404F"/>
<path d="M305.957 171.502C306.488 171.808 306.491 172.306 305.963 172.612L302.984 174.343C302.457 174.649 301.598 174.649 301.067 174.343L266.197 154.211C265.663 153.903 265.66 153.405 266.187 153.099L269.166 151.368C269.693 151.062 270.552 151.062 271.086 151.37L305.957 171.502Z" fill="#39404F"/>
<path d="M302.984 174.343L302.98 175.663C302.453 175.969 301.594 175.969 301.063 175.663L301.067 174.343C301.598 174.649 302.457 174.649 302.984 174.343Z" fill="#39404F"/>
<path d="M309.218 172.328L309.222 171.008C309.222 171.21 309.355 171.413 309.622 171.567L309.618 172.887C309.351 172.733 309.218 172.531 309.218 172.328ZM319.135 171.725L319.131 173.045C319.13 173.245 318.999 173.443 318.738 173.596L318.742 172.276C319.003 172.124 319.134 171.925 319.135 171.725ZM318.742 172.276L318.738 173.596L315.76 175.327L315.763 174.007L318.742 172.276ZM313.843 174.005L313.84 175.324L309.618 172.887L309.622 171.567L313.843 174.005Z" fill="#39404F"/>
<path d="M318.732 171.163C319.266 171.471 319.269 171.969 318.742 172.275L315.763 174.006C315.236 174.312 314.377 174.312 313.843 174.004L309.622 171.567C309.091 171.261 309.088 170.763 309.616 170.457L312.594 168.726C313.121 168.42 313.98 168.42 314.511 168.726L318.732 171.163Z" fill="#39404F"/>
<path d="M315.763 174.007L315.759 175.327C315.232 175.633 314.373 175.633 313.839 175.325L313.843 174.005C314.377 174.313 315.236 174.313 315.763 174.007Z" fill="#39404F"/>
<path d="M303.373 176.667L303.377 175.347C303.376 175.55 303.511 175.753 303.78 175.909L303.776 177.229C303.507 177.073 303.373 176.87 303.373 176.667ZM313.29 176.064L313.286 177.384C313.285 177.584 313.154 177.783 312.892 177.935L312.896 176.615C313.158 176.463 313.289 176.263 313.29 176.064Z" fill="#39404F"/>
<path d="M312.896 176.615L312.892 177.935L309.914 179.666L309.918 178.346L312.896 176.615ZM308.001 178.346L307.997 179.666L303.776 177.228L303.78 175.909L308.001 178.346Z" fill="#39404F"/>
<path d="M312.89 175.505C313.421 175.811 313.423 176.309 312.896 176.615L309.918 178.346C309.391 178.652 308.532 178.652 308.001 178.346L303.78 175.909C303.246 175.601 303.243 175.103 303.77 174.797L306.749 173.066C307.276 172.76 308.135 172.76 308.669 173.068L312.89 175.505Z" fill="#39404F"/>
<path d="M309.918 178.346L309.914 179.666C309.387 179.972 308.528 179.972 307.997 179.666L308.001 178.346C308.532 178.652 309.391 178.652 309.918 178.346Z" fill="#39404F"/>
<path d="M316.645 176.616L316.649 175.296C316.648 175.498 316.782 175.701 317.049 175.855L317.045 177.175C316.777 177.021 316.644 176.818 316.645 176.616ZM326.561 176.013L326.557 177.333C326.556 177.533 326.425 177.731 326.164 177.884L326.168 176.564C326.429 176.411 326.56 176.212 326.561 176.013ZM326.168 176.563L326.164 177.883L323.186 179.614L323.189 178.294L326.168 176.563Z" fill="#39404F"/>
<path d="M321.269 178.292L321.266 179.612L317.044 177.175L317.048 175.855L321.269 178.292ZM326.158 175.451C326.692 175.759 326.695 176.257 326.168 176.563L323.19 178.294C322.663 178.6 321.803 178.6 321.269 178.292L317.049 175.855C316.518 175.549 316.516 175.051 317.043 174.745L320.022 173.014C320.549 172.708 321.408 172.708 321.939 173.014L326.158 175.451Z" fill="#39404F"/>
<path d="M323.189 178.294L323.185 179.614C322.658 179.92 321.799 179.92 321.265 179.612L321.269 178.292C321.803 178.6 322.662 178.6 323.189 178.294Z" fill="#39404F"/>
<path d="M310.709 180.903L310.713 179.583C310.712 179.785 310.846 179.988 311.113 180.142L311.109 181.462C310.842 181.308 310.709 181.106 310.709 180.903ZM320.626 180.3L320.622 181.62C320.621 181.82 320.49 182.018 320.229 182.171L320.233 180.851C320.494 180.699 320.625 180.5 320.626 180.3ZM320.233 180.851L320.229 182.171L317.25 183.901L317.254 182.581L320.233 180.851Z" fill="#39404F"/>
<path d="M315.334 182.58L315.33 183.899L311.109 181.462L311.113 180.142L315.334 182.58Z" fill="#39404F"/>
<path d="M320.223 179.738C320.757 180.046 320.76 180.544 320.233 180.85L317.254 182.581C316.727 182.887 315.868 182.887 315.334 182.579L311.113 180.142C310.582 179.836 310.579 179.338 311.107 179.032L314.085 177.301C314.612 176.995 315.471 176.995 316.002 177.301L320.223 179.738Z" fill="#39404F"/>
<path d="M317.254 182.581L317.25 183.901C316.723 184.207 315.864 184.207 315.33 183.899L315.334 182.579C315.868 182.888 316.727 182.888 317.254 182.581Z" fill="#39404F"/>
<path d="M324.07 180.903L324.074 179.583C324.073 179.785 324.207 179.988 324.474 180.142L324.47 181.462C324.203 181.308 324.07 181.106 324.07 180.903ZM333.987 180.3L333.983 181.62C333.983 181.82 333.851 182.019 333.59 182.171L333.594 180.851C333.855 180.699 333.986 180.5 333.987 180.3ZM333.594 180.851L333.59 182.17L330.612 183.901L330.615 182.581L333.594 180.851ZM328.695 182.579L328.692 183.899L324.47 181.462L324.474 180.142L328.695 182.579Z" fill="#39404F"/>
<path d="M333.584 179.738C334.118 180.046 334.121 180.544 333.594 180.85L330.615 182.581C330.088 182.887 329.229 182.887 328.695 182.579L324.474 180.142C323.943 179.836 323.94 179.338 324.468 179.032L327.446 177.301C327.973 176.995 328.832 176.995 329.363 177.301L333.584 179.738Z" fill="#39404F"/>
<path d="M330.615 182.581L330.611 183.901C330.084 184.207 329.225 184.207 328.691 183.899L328.695 182.579C329.229 182.888 330.088 182.888 330.615 182.581Z" fill="#39404F"/>
<path d="M317.684 184.93L317.688 183.61C317.688 183.812 317.821 184.015 318.088 184.169L318.084 185.489C317.817 185.335 317.683 185.132 317.684 184.93ZM327.599 184.327L327.595 185.647C327.594 185.846 327.464 186.045 327.203 186.197L327.207 184.877C327.468 184.726 327.599 184.527 327.599 184.327Z" fill="#39404F"/>
<path d="M327.207 184.877L327.204 186.197L324.225 187.928L324.229 186.608L327.207 184.877ZM322.309 186.606L322.305 187.926L318.084 185.489L318.087 184.169L322.309 186.606Z" fill="#39404F"/>
<path d="M327.198 183.765C327.729 184.071 327.735 184.571 327.208 184.877L324.23 186.608C323.703 186.914 322.841 186.912 322.31 186.606L318.089 184.169C317.558 183.863 317.555 183.365 318.083 183.059L321.062 181.328C321.589 181.022 322.448 181.022 322.979 181.328L327.198 183.765Z" fill="#39404F"/>
<path d="M324.229 186.608L324.225 187.928C323.698 188.234 322.836 188.232 322.305 187.926L322.309 186.606C322.839 186.913 323.702 186.915 324.229 186.608Z" fill="#39404F"/>
<path d="M331.496 185.191L331.5 183.871C331.499 184.073 331.633 184.276 331.9 184.43L331.896 185.75C331.629 185.595 331.496 185.393 331.496 185.191ZM341.412 184.588L341.408 185.908C341.407 186.107 341.277 186.306 341.016 186.458L341.02 185.138C341.281 184.986 341.411 184.787 341.412 184.588Z" fill="#39404F"/>
<path d="M341.02 185.138L341.016 186.458L338.038 188.189L338.042 186.869L341.02 185.138ZM336.121 186.867L336.118 188.187L331.896 185.75L331.9 184.43L336.121 186.867Z" fill="#39404F"/>
<path d="M341.01 184.026C341.541 184.332 341.547 184.832 341.02 185.138L338.042 186.869C337.515 187.175 336.653 187.173 336.122 186.867L331.901 184.43C331.37 184.124 331.367 183.626 331.895 183.32L334.873 181.589C335.4 181.283 336.259 181.283 336.79 181.589L341.01 184.026Z" fill="#39404F"/>
<path d="M338.042 186.869L338.038 188.189C337.511 188.495 336.649 188.493 336.118 188.187L336.122 186.867C336.652 187.173 337.514 187.175 338.042 186.869Z" fill="#39404F"/>
<path d="M325.017 189.163L325.021 187.843C325.02 188.046 325.155 188.249 325.424 188.405L325.42 189.725C325.151 189.569 325.017 189.366 325.017 189.163ZM334.934 188.56L334.93 189.88C334.929 190.08 334.798 190.279 334.536 190.431L334.54 189.111C334.802 188.959 334.933 188.76 334.934 188.56Z" fill="#39404F"/>
<path d="M334.54 189.111L334.537 190.431L331.558 192.162L331.562 190.842L334.54 189.111ZM329.645 190.842L329.641 192.162L325.42 189.725L325.424 188.405L329.645 190.842Z" fill="#39404F"/>
<path d="M334.534 188.001C335.065 188.307 335.067 188.805 334.54 189.111L331.562 190.842C331.035 191.148 330.176 191.148 329.645 190.842L325.424 188.405C324.89 188.097 324.887 187.599 325.414 187.293L328.393 185.562C328.92 185.256 329.779 185.256 330.313 185.564L334.534 188.001Z" fill="#39404F"/>
<path d="M331.562 190.842L331.558 192.162C331.031 192.468 330.172 192.468 329.641 192.162L329.645 190.842C330.176 191.148 331.035 191.148 331.562 190.842Z" fill="#39404F"/>
<path d="M338.923 189.478L338.927 188.158C338.926 188.36 339.06 188.563 339.327 188.717L339.323 190.037C339.055 189.883 338.922 189.68 338.923 189.478ZM348.838 188.875L348.834 190.195C348.833 190.394 348.703 190.593 348.442 190.745L348.446 189.425C348.707 189.274 348.837 189.075 348.838 188.875Z" fill="#39404F"/>
<path d="M348.446 189.425L348.442 190.745L345.464 192.476L345.468 191.156L348.446 189.425ZM343.547 191.154L343.544 192.474L339.322 190.037L339.326 188.717L343.547 191.154Z" fill="#39404F"/>
<path d="M348.436 188.313C348.967 188.619 348.973 189.119 348.446 189.425L345.468 191.156C344.941 191.462 344.079 191.46 343.548 191.154L339.327 188.717C338.796 188.411 338.793 187.913 339.321 187.607L342.3 185.876C342.827 185.57 343.686 185.57 344.217 185.876L348.436 188.313Z" fill="#39404F"/>
<path d="M345.468 191.156L345.464 192.476C344.937 192.782 344.075 192.78 343.544 192.474L343.548 191.154C344.078 191.461 344.94 191.463 345.468 191.156Z" fill="#39404F"/>
<path d="M332.264 193.348L332.268 192.028C332.267 192.23 332.401 192.433 332.668 192.587L332.664 193.907C332.396 193.753 332.263 193.55 332.264 193.348ZM342.179 192.745L342.175 194.065C342.174 194.264 342.044 194.463 341.783 194.615L341.787 193.295C342.048 193.143 342.178 192.944 342.179 192.745Z" fill="#39404F"/>
<path d="M341.787 193.295L341.783 194.615L338.805 196.346L338.809 195.026L341.787 193.295ZM336.889 195.024L336.885 196.344L332.664 193.907L332.667 192.587L336.889 195.024Z" fill="#39404F"/>
<path d="M341.777 192.183C342.308 192.489 342.314 192.989 341.787 193.295L338.808 195.026C338.281 195.332 337.419 195.33 336.888 195.024L332.667 192.587C332.136 192.281 332.134 191.783 332.661 191.477L335.639 189.746C336.166 189.44 337.025 189.44 337.556 189.746L341.777 192.183Z" fill="#39404F"/>
<path d="M338.809 195.026L338.805 196.346C338.278 196.652 337.416 196.65 336.885 196.344L336.889 195.024C337.419 195.33 338.281 195.332 338.809 195.026Z" fill="#39404F"/>
<path d="M298.1 113.686L373.263 157.081C374.42 157.749 375.358 157.04 375.358 155.497V100.304C375.358 98.761 374.42 96.968 373.263 96.3L298.1 52.905C296.943 52.237 296.005 52.946 296.005 54.489V109.682C296.004 111.226 296.942 113.018 298.1 113.686Z" fill="#485CE0"/>
<path d="M371.269 98.425C371.269 99.124 371.759 99.973 372.364 100.322C372.969 100.671 373.459 100.388 373.459 99.69C373.459 98.991 372.969 98.142 372.364 97.793C371.76 97.443 371.269 97.727 371.269 98.425ZM368.499 96.826C368.499 97.525 368.989 98.374 369.594 98.723C370.199 99.072 370.689 98.789 370.689 98.091C370.689 97.392 370.199 96.543 369.594 96.194C368.989 95.844 368.499 96.127 368.499 96.826ZM365.728 95.226C365.728 95.925 366.218 96.774 366.823 97.123C367.428 97.472 367.918 97.189 367.918 96.491C367.918 95.792 367.427 94.943 366.823 94.594C366.218 94.244 365.728 94.527 365.728 95.226Z" fill="#7481FA"/>
<path d="M292.157 116.261L367.32 159.656C368.477 160.324 369.415 159.615 369.415 158.072V102.88C369.415 101.337 368.477 99.544 367.32 98.876L292.157 55.48C291 54.812 290.061 55.521 290.061 57.064V112.256C290.061 113.801 291 115.593 292.157 116.261Z" fill="#7481FA"/>
<path d="M365.327 101C365.327 101.699 365.818 102.548 366.422 102.897C367.027 103.246 367.517 102.963 367.517 102.265C367.517 101.566 367.027 100.717 366.422 100.368C365.817 100.019 365.327 100.302 365.327 101Z" fill="white"/>
<path d="M362.556 99.401C362.556 100.1 363.046 100.949 363.651 101.298C364.256 101.647 364.746 101.364 364.746 100.666C364.746 99.967 364.256 99.118 363.651 98.769C363.047 98.419 362.556 98.702 362.556 99.401ZM359.785 97.801C359.785 98.5 360.275 99.349 360.88 99.698C361.485 100.047 361.975 99.764 361.975 99.066C361.975 98.367 361.485 97.518 360.88 97.169C360.275 96.82 359.785 97.102 359.785 97.801Z" fill="#4652F6"/>
<path d="M342.981 133.776L342.882 133.719C342.518 133.509 342.22 132.94 342.22 132.454V100.771C342.22 100.286 342.518 100.06 342.882 100.271L342.981 100.328C343.345 100.538 343.643 101.107 343.643 101.593V133.276C343.642 133.761 343.344 133.987 342.981 133.776ZM346.46 135.786L346.361 135.729C345.997 135.519 345.699 134.95 345.699 134.464V114.652C345.699 114.167 345.997 113.942 346.361 114.152L346.46 114.209C346.824 114.419 347.122 114.988 347.122 115.474V135.286C347.122 135.771 346.824 135.996 346.46 135.786ZM356.9 141.813L356.801 141.756C356.437 141.546 356.139 140.977 356.139 140.491V120.679C356.139 120.194 356.437 119.969 356.801 120.179L356.9 120.236C357.264 120.446 357.562 121.015 357.562 121.501V141.313C357.562 141.798 357.264 142.023 356.9 141.813ZM349.94 137.795L349.841 137.738C349.477 137.528 349.179 136.959 349.179 136.473V126.666C349.179 126.181 349.477 125.955 349.841 126.166L349.94 126.223C350.304 126.433 350.602 127.002 350.602 127.488V137.296C350.602 137.78 350.304 138.005 349.94 137.795ZM360.385 143.825L360.277 143.762C359.877 143.531 359.549 142.905 359.549 142.372V136.2C359.549 135.666 359.877 135.419 360.277 135.65L360.385 135.713C360.785 135.944 361.113 136.57 361.113 137.103V143.275C361.112 143.808 360.785 144.056 360.385 143.825ZM353.42 139.804L353.321 139.747C352.957 139.537 352.659 138.968 352.659 138.482V128.675C352.659 128.19 352.957 127.964 353.321 128.175L353.42 128.232C353.784 128.442 354.082 129.011 354.082 129.497V139.305C354.082 139.789 353.784 140.014 353.42 139.804Z" fill="white"/>
<path d="M342.207 135.868L360.855 146.635C361.132 146.795 361.359 146.624 361.359 146.254C361.359 145.884 361.132 145.451 360.855 145.291L342.207 134.524C341.93 134.364 341.703 134.535 341.703 134.905C341.703 135.275 341.929 135.708 342.207 135.868Z" fill="#485CE0"/>
<path opacity="0.2" d="M322.647 119.034C327.701 116.116 327.701 106.654 322.646 97.8997C317.592 89.1455 309.398 84.4144 304.344 87.3324C299.29 90.2503 299.29 99.7125 304.344 108.467C309.398 117.221 317.593 121.952 322.647 119.034Z" fill="#39404F"/>
<path d="M307.775 85.0179L314.914 80.869L314.874 94.681L307.736 98.8289L307.775 85.0179Z" fill="#2A3E77"/>
<path d="M300.769 84.79L307.908 80.641C309.736 79.579 312.186 79.589 314.914 80.868L307.775 85.016C305.048 83.738 302.597 83.728 300.769 84.79Z" fill="#2C4475"/>
<path d="M307.775 85.0179L307.736 98.8299L320.15 105.997C319.763 112.615 314.812 115.17 308.778 111.686C302.505 108.064 297.436 99.2869 297.456 92.0749C297.475 85.2849 302.005 82.3109 307.775 85.0179Z" fill="#344E8F"/>
<path d="M323.999 108.329L316.86 112.477C318.742 111.383 319.964 109.151 320.149 105.996L327.288 101.847C327.104 105.003 325.882 107.235 323.999 108.329Z" fill="#2C4475"/>
<path d="M307.736 98.829L314.874 94.681L327.288 101.848L320.15 105.996L307.736 98.829Z" fill="#2A3E77"/>
<path d="M307.792 79.834C317.433 85.4 325.233 98.855 325.281 109.957L322.104 108.123L307.736 99.827L307.781 83.841L307.792 79.834Z" fill="#2B3DF9"/>
<path d="M307.792 79.834L316.055 75.032C325.696 80.598 333.496 94.053 333.544 105.155L325.281 109.957C325.234 98.854 317.433 85.4 307.792 79.834Z" fill="#4652F6"/>
<path opacity="0.9" d="M313.093 47.465L271.438 23.415C270.797 23.045 270.277 23.438 270.277 24.293V44.098C270.277 44.953 270.797 45.947 271.438 46.317L275.032 48.392C275.355 50.054 276.078 52.554 277.67 54.47C277.902 54.749 278.359 54.612 278.405 54.252C278.489 53.601 278.69 52.721 279.168 51.974C279.484 51.481 280.147 51.344 280.654 51.637L313.093 70.366C313.734 70.736 314.254 70.343 314.254 69.488V49.683C314.254 48.829 313.734 47.835 313.093 47.465Z" fill="#91E8B2"/>
<path d="M272.564 35.88C272.564 39.718 275.258 44.384 278.582 46.303C281.906 48.222 284.6 46.666 284.6 42.829C284.6 38.991 281.906 34.325 278.582 32.406C275.258 30.486 272.564 32.042 272.564 35.88Z" fill="#2C4475"/>
<path d="M282.796 48.9409L274.366 44.0739V42.4239C274.366 40.6219 275.461 39.7939 276.813 40.5739L280.35 42.6159C281.701 43.3959 282.797 45.4889 282.797 47.2909V48.9409H282.796Z" fill="#7481FA"/>
<path d="M278.79 44.7959L278.373 44.555C276.83 43.664 275.579 41.275 275.579 39.218V38.113C275.579 36.056 276.83 35.11 278.373 36.001L278.79 36.242C280.333 37.133 281.583 39.522 281.583 41.579V42.6839C281.583 44.7409 280.333 45.6869 278.79 44.7959Z" fill="#D9E8FD"/>
<path d="M294.96 47.2139L288.166 43.2919C287.693 43.0189 287.306 42.2789 287.306 41.6479C287.306 41.0169 287.693 40.7249 288.166 40.9979L294.96 44.9199C295.433 45.1929 295.82 45.9329 295.82 46.5639C295.82 47.1949 295.433 47.4869 294.96 47.2139ZM307.306 57.7279L288.167 46.6779C287.694 46.4049 287.307 45.6649 287.307 45.0339C287.307 44.4029 287.694 44.1109 288.167 44.3839L307.306 55.4339C307.779 55.7069 308.166 56.4469 308.166 57.0779C308.166 57.7079 307.779 58.0009 307.306 57.7279ZM307.306 61.1139L288.167 50.0639C287.694 49.7909 287.307 49.0509 287.307 48.4199C287.307 47.7889 287.694 47.4969 288.167 47.7699L307.306 58.8199C307.779 59.0929 308.166 59.8329 308.166 60.4639C308.166 61.0949 307.779 61.3869 307.306 61.1139Z" fill="white"/>
<path d="M333.54 29.522L291.885 5.47196C291.244 5.10196 290.724 5.49496 290.724 6.34996V26.155C290.724 27.01 291.244 28.004 291.885 28.374L295.479 30.449C295.802 32.111 296.525 34.611 298.117 36.527C298.349 36.806 298.806 36.669 298.852 36.309C298.936 35.658 299.137 34.778 299.615 34.031C299.931 33.538 300.594 33.401 301.101 33.694L333.54 52.423C334.181 52.793 334.701 52.4 334.701 51.545V31.74C334.701 30.886 334.181 29.892 333.54 29.522Z" fill="#4652F6"/>
<path d="M293.01 17.937C293.01 21.775 295.704 26.441 299.028 28.36C302.352 30.279 305.046 28.723 305.046 24.886C305.046 21.048 302.352 16.382 299.028 14.463C295.704 12.544 293.01 14.099 293.01 17.937Z" fill="#2C4475"/>
<path d="M303.243 30.998L294.813 26.131V24.481C294.813 22.679 295.908 21.851 297.26 22.631L300.797 24.673C302.148 25.453 303.244 27.546 303.244 29.348L303.243 30.998Z" fill="#7481FA"/>
<path d="M299.236 26.853L298.819 26.613C297.276 25.722 296.025 23.333 296.025 21.275V20.17C296.025 18.113 297.276 17.167 298.819 18.058L299.236 18.299C300.779 19.19 302.029 21.579 302.029 23.636V24.741C302.03 26.798 300.779 27.744 299.236 26.853Z" fill="#D9E8FD"/>
<path d="M315.407 29.271L308.613 25.349C308.14 25.076 307.753 24.336 307.753 23.705C307.753 23.074 308.14 22.7819 308.613 23.0549L315.407 26.9769C315.88 27.2499 316.267 27.99 316.267 28.621C316.267 29.252 315.88 29.544 315.407 29.271ZM327.752 39.785L308.613 28.735C308.14 28.462 307.753 27.722 307.753 27.091C307.753 26.46 308.14 26.168 308.613 26.441L327.752 37.491C328.225 37.764 328.612 38.504 328.612 39.135C328.612 39.7649 328.225 40.058 327.752 39.785ZM327.752 43.1709L308.613 32.121C308.14 31.848 307.753 31.1079 307.753 30.4769C307.753 29.8459 308.14 29.553 308.613 29.827L327.752 40.877C328.225 41.15 328.612 41.89 328.612 42.521C328.612 43.152 328.225 43.4439 327.752 43.1709Z" fill="white"/>
<path d="M327.33 172.195L325.977 171.414C325.814 171.32 325.732 171.13 325.775 170.947L339.529 112.094C339.574 111.901 339.792 111.806 339.964 111.905L341.556 112.824C341.669 112.889 341.725 113.02 341.696 113.147L327.961 171.923C327.895 172.201 327.578 172.338 327.33 172.195ZM335.683 177.057L334.133 176.162C334.011 176.092 333.95 175.95 333.982 175.814L347.701 117.109C347.773 116.803 348.119 116.653 348.392 116.81L349.671 117.548C349.85 117.651 349.94 117.859 349.893 118.06L336.154 176.853C336.104 177.061 335.869 177.164 335.683 177.057Z" fill="#4652F6"/>
<path d="M347.976 125.154L337.874 119.321L338.389 117.556L348.49 123.388L347.976 125.154ZM346.312 132.575L336.21 126.742L336.724 124.977L346.826 130.809L346.312 132.575ZM342.425 149.27L332.324 143.437L332.838 141.672L342.94 147.504L342.425 149.27ZM344.408 140.678L334.307 134.846L334.821 133.081L344.923 138.913L344.408 140.678ZM338.085 167.629L327.983 161.797L328.498 160.032L338.6 165.864L338.085 167.629ZM340.234 158.789L330.132 152.957L330.647 151.191L340.748 157.024L340.234 158.789Z" fill="#4652F6"/>
<path d="M343.122 93.929C343.122 94.752 343.7 95.7529 344.413 96.1649C345.126 96.5769 345.704 96.243 345.704 95.42C345.704 94.597 345.126 93.5959 344.413 93.1839C343.7 92.7719 343.122 93.106 343.122 93.929ZM356.623 103.251L346.493 97.4019V92.718L358.989 99.933V101.885C358.988 103.099 357.674 103.858 356.623 103.251Z" fill="#2C4475"/>
<path d="M341.496 107.292L336.507 106.5C335.846 106.395 335.396 105.775 335.501 105.114C335.606 104.454 336.226 104.004 336.886 104.109L339.801 104.572L342.802 94.8789C343 94.2399 343.678 93.8829 344.317 94.0799C344.956 94.2779 345.313 94.9559 345.115 95.5949L341.496 107.292Z" fill="#D1AB8B"/>
<path d="M334.418 134.6C334.418 134.6 334.12 136.088 334.864 136.385C335.608 136.683 338.187 135.096 338.385 134.451C338.583 133.806 338.286 133.41 337.839 133.36C337.393 133.31 335.855 133.707 335.855 133.707L334.418 134.6ZM339.377 137.03C339.377 137.03 339.08 138.518 339.823 138.815C340.567 139.113 343.146 137.526 343.344 136.881C343.542 136.236 343.245 135.84 342.798 135.79C342.352 135.74 340.814 136.137 340.814 136.137L339.377 137.03Z" fill="#3D4063"/>
<path d="M337.939 120.417L336.451 134.848C336.451 134.848 336.203 135.046 335.31 134.997C334.417 134.947 333.872 134.352 333.872 134.352L333.773 119.574L337.939 120.417ZM342.452 119.772L341.659 136.434C341.659 136.434 341.213 137.525 340.171 137.376C339.13 137.227 339.13 136.93 339.13 136.93L337.94 120.417L342.452 119.772Z" fill="#2B3DF9"/>
<path d="M333.899 119.888L338.456 120.48C339.924 120.671 341.422 120.506 342.8 119.967C342.942 119.912 343.029 119.873 343.029 119.86L342.548 108.004C342.588 105.862 341.569 104.09 339.427 104.05L337.385 104.012C335.243 103.972 333.458 105.692 333.418 107.834L333.209 119.089C333.203 119.492 333.5 119.836 333.899 119.888Z" fill="#91E8B2"/>
<path d="M338.717 104.788C339.448 104.788 340.04 104.196 340.04 103.465V101.219H337.394V103.465C337.394 104.196 337.986 104.788 338.717 104.788Z" fill="#D1AB8B"/>
<path d="M338.444 104.224H338.826C340.414 104.224 341.713 102.925 341.713 101.337V98.2439C341.713 96.6559 340.414 95.3569 338.826 95.3569H338.444C336.856 95.3569 335.557 96.6559 335.557 98.2439V101.337C335.557 102.925 336.856 104.224 338.444 104.224Z" fill="#DDBB97"/>
<path d="M336.985 102.189H338.131C339.269 102.189 340.192 101.266 340.192 100.128L340.766 95.4089H334.925V100.128C334.924 101.267 335.847 102.189 336.985 102.189Z" fill="#544E49"/>
<path d="M339.044 98.591H341.727C342.204 98.591 342.59 98.204 342.59 97.728V96.089C342.59 95.603 342.189 95.213 341.703 95.226L334.924 95.41L339.044 98.591Z" fill="#544E49"/>
<path d="M348.853 109.628L342.668 108.646L343.049 106.255L347.16 106.908L350.161 97.2149C350.359 96.5759 351.037 96.2189 351.676 96.4169C352.315 96.6149 352.672 97.2929 352.474 97.9319L348.853 109.628Z" fill="#D1AB8B"/>
<path d="M344.767 109.217L345.494 106.244C345.513 106.165 345.465 106.086 345.386 106.067L341.562 105.132C340.694 104.92 339.818 105.452 339.606 106.32L339.578 106.434C339.366 107.302 339.898 108.178 340.766 108.39L344.59 109.325C344.669 109.344 344.748 109.296 344.767 109.217Z" fill="#91E8B2"/>
<path opacity="0.3" d="M130.868 193.646L104.418 178.375L139.114 158.343L165.506 173.581C165.703 173.694 165.703 173.978 165.506 174.091L131.636 193.646C131.399 193.783 131.106 193.783 130.868 193.646Z" fill="#2C4475"/>
<path d="M156.165 154.881L156.122 170.021C156.114 173.005 154.153 175.984 150.235 178.261C142.346 182.846 129.518 182.846 121.581 178.263C117.588 175.957 115.593 172.931 115.601 169.908L115.644 154.768C115.635 157.79 117.63 160.817 121.624 163.123C129.561 167.705 142.389 167.705 150.278 163.121C154.196 160.844 156.157 157.865 156.165 154.881Z" fill="#2C4475"/>
<path d="M150.185 146.525C158.122 151.107 158.164 158.538 150.278 163.12C142.389 167.705 129.561 167.705 121.624 163.122C113.687 158.54 113.645 151.109 121.534 146.524C129.42 141.943 142.248 141.943 150.185 146.525Z" fill="#2C4475"/>
<path d="M96.777 153.313L134.433 175.054C134.933 175.343 135.55 175.343 136.05 175.054L173.706 153.313C174.784 152.691 174.784 151.135 173.706 150.512L136.05 128.771C135.55 128.482 134.933 128.482 134.433 128.771L96.777 150.512C95.699 151.134 95.699 152.69 96.777 153.313Z" fill="#344E8F"/>
<path d="M137.15 146.429C137.009 146.348 136.835 146.348 136.694 146.429L111.621 160.905C111.458 160.957 111.339 161.106 111.332 161.285C111.328 161.317 111.328 161.349 111.331 161.381V178.919C111.331 179.148 111.517 179.335 111.747 179.335C111.977 179.335 112.163 179.149 112.163 178.919V161.645L137.15 147.219C137.454 147.043 137.454 146.605 137.15 146.429Z" fill="#91E8B2"/>
<path d="M111.701 180.135H111.81C112.275 180.135 112.656 179.754 112.656 179.289V176.179C112.656 175.714 112.275 175.333 111.81 175.333H111.701C111.236 175.333 110.855 175.714 110.855 176.179V179.289C110.855 179.754 111.236 180.135 111.701 180.135Z" fill="#4652F6"/>
<path d="M212.629 238.823L212.62 242.13C212.616 243.459 211.743 244.786 209.998 245.801C206.483 247.844 200.767 247.841 197.234 245.801C195.453 244.773 194.564 243.425 194.568 242.078L194.577 238.771C194.573 240.117 195.462 241.466 197.243 242.494C200.776 244.534 206.492 244.537 210.007 242.494C211.753 241.479 212.625 240.151 212.629 238.823Z" fill="#85D6A1"/>
<path d="M209.965 235.1C213.498 237.14 213.522 240.451 210.007 242.493C206.492 244.536 200.776 244.533 197.243 242.493C193.705 240.45 193.686 237.142 197.201 235.1C200.716 233.057 206.427 233.057 209.965 235.1Z" fill="#91E8B2"/>
<path d="M200.968 238.339C201.078 238.762 201.33 239.21 201.962 239.575C202.619 239.954 203.269 239.989 203.698 239.741C204.743 239.138 201.886 237.702 203.353 236.856C204.145 236.399 205.333 236.511 206.302 237.07C207.044 237.498 207.204 237.912 207.212 238.345L206.428 238.37C206.352 237.976 206.226 237.698 205.67 237.377C205.105 237.051 204.482 237.002 204.06 237.245C203.133 237.78 205.981 239.22 204.439 240.111C203.63 240.578 202.358 240.476 201.296 239.863C200.605 239.464 200.217 238.89 200.15 238.433L200.968 238.339ZM207.111 236.271L207.616 236.563L206.259 237.346L205.754 237.054L207.111 236.271ZM201.844 239.895L200.386 240.737L199.881 240.445L201.339 239.603L201.844 239.895Z" fill="white"/>
</svg>
