<?xml version="1.0" standalone="no"?>
<!DOCTYPE svg PUBLIC "-//W3C//DTD SVG 20010904//EN"
 "http://www.w3.org/TR/2001/REC-SVG-20010904/DTD/svg10.dtd">
<svg version="1.0" xmlns="http://www.w3.org/2000/svg"
 width="700.000000pt" height="700.000000pt" viewBox="0 0 700.000000 700.000000"
 preserveAspectRatio="xMidYMid meet">
<metadata>
Created by potrace 1.14, written by Peter Selinger 2001-2017
</metadata>
<g transform="translate(0.000000,700.000000) scale(0.100000,-0.100000)"
fill="#000000" stroke="none">
<path d="M1855 6989 c-234 -23 -494 -97 -712 -204 -640 -314 -1068 -940 -1133
-1660 -13 -148 -13 -3102 0 -3250 65 -721 493 -1347 1135 -1661 228 -111 473
-180 725 -203 152 -14 3100 -15 3255 -1 719 65 1342 490 1659 1131 110 222
182 477 205 729 15 158 15 3102 0 3260 -67 727 -500 1351 -1154 1667 -210 101
-469 171 -710 193 -136 12 -3140 11 -3270 -1z m2404 -1755 c376 -156 685 -285
687 -287 3 -2 139 -329 303 -725 l299 -722 -299 -722 c-165 -397 -301 -723
-303 -725 -2 -2 -328 -138 -724 -302 l-721 -299 -722 299 c-398 165 -724 301
-726 303 -2 1 -137 327 -301 722 l-298 719 500 3 c276 1 506 0 511 -2 6 -2 77
-165 159 -363 l148 -359 364 -151 364 -151 364 150 363 151 151 363 150 364
-150 364 -151 364 -361 149 -361 149 -3 512 -2 511 37 -16 c21 -8 346 -143
722 -299z m-1781 153 c247 -87 416 -296 452 -556 28 -208 -43 -414 -196 -566
-114 -114 -236 -174 -396 -195 -315 -42 -624 153 -729 460 -30 88 -38 276 -15
373 45 192 183 364 363 452 110 54 168 65 318 62 110 -3 141 -7 203 -30z"/>
</g>
</svg>
